<?xml version="1.0" encoding="iso-8859-1"?>
<svg 
version="1.1" xmlns="http://www.w3.org/2000/svg" 
xmlns:xlink="http://www.w3.org/1999/xlink" 
x="0px" y="0px"
viewBox="0 0 512 512" style="enable-background:new 0 0 512 512;" 
xml:space="preserve"
fill="#fafafa"
stroke="hsl(180, 58%, 6%)"
>
		<path d="M353.089,301.835l-9.814-16.998c-2.389-4.139-7.682-5.554-11.818-3.166c-4.138,2.389-5.555,7.68-3.166,11.818
			l9.814,16.998c1.602,2.774,4.51,4.327,7.5,4.327c1.467,0,2.956-0.375,4.318-1.16C354.061,311.264,355.478,305.973,353.089,301.835
			z"/>
		<path d="M511.424,433.746l-67.179-174.754c-0.969-2.521-3.06-4.446-5.654-5.201c-2.595-0.757-5.391-0.257-7.563,1.348
			l-15.833,11.705l-60.281-104.421c-1.546-2.677-4.402-4.326-7.493-4.326c-3.091,0-5.947,1.649-7.493,4.326l-33.666,58.31
			l-47.84-82.846c-1.546-2.676-4.402-4.326-7.492-4.326c-3.091,0-5.946,1.65-7.492,4.326l-50.906,88.18l-11.277-19.534
			c0,0-0.001-0.001-0.001-0.002v-0.001l-17.325-29.991c-1.546-2.676-4.402-4.324-7.492-4.324s-5.946,1.649-7.491,4.326
			L1.159,432.525c-1.546,2.677-1.546,5.975,0,8.651c1.546,2.676,4.401,4.326,7.492,4.326h77.79c4.778,0,8.651-3.873,8.651-8.651
			c0-4.778-3.873-8.651-8.651-8.651H23.635l89.912-155.74l24.637,24.637c1.689,1.689,3.903,2.534,6.117,2.534
			s4.428-0.844,6.117-2.534l16.979-16.979l40.957,7.967l12.406,21.491c1.602,2.775,4.51,4.326,7.499,4.326
			c1.468,0,2.956-0.375,4.319-1.162c4.138-2.39,5.554-7.681,3.165-11.819l-33.223-57.55l18.982-32.879l32.455,28.673
			c1.64,1.45,3.685,2.167,5.726,2.167c2.221,0,4.435-0.85,6.119-2.534l19.596-19.596l25.792,44.665
			c1.603,2.775,4.51,4.327,7.5,4.327c1.467,0,2.956-0.375,4.319-1.16c4.138-2.389,5.555-7.68,3.166-11.819l-9.922-17.182
			l31.167-53.981l53.771,93.141l-9.958,7.358c-3.843,2.839-4.657,8.257-1.817,12.099c1.697,2.297,4.313,3.51,6.965,3.51
			c1.786,0,3.587-0.551,5.134-1.694l30.658-22.659l58.582,152.39h-64.712l-22.084-38.26c-2.389-4.139-7.681-5.557-11.818-3.169
			c-4.139,2.389-5.556,7.679-3.169,11.818l17.091,29.611H121.047c-4.778,0-8.651,3.873-8.651,8.651c0,4.778,3.873,8.651,8.651,8.651
			h382.301c2.85,0,5.517-1.404,7.131-3.752C512.093,439.398,512.446,436.406,511.424,433.746z M166.186,262.255
			c-2.823-0.549-5.735,0.34-7.769,2.375l-14.115,14.115l-21.799-21.799l33.936-58.781l9.83,17.015v0.001l18.834,32.624
			c0.024,0.039,0.045,0.081,0.069,0.12l11.719,20.301L166.186,262.255z M259.319,220.814l-28.99-25.612l20.602-35.687l25.509,44.176
			L259.319,220.814z"/>
		<path d="M376.257,66.499c-45.344,0-82.232,36.889-82.232,82.232c0,11.722,2.419,23.047,7.187,33.665
			c1.958,4.358,7.078,6.303,11.437,4.345c4.358-1.958,6.304-7.079,4.346-11.437c-3.761-8.372-5.668-17.313-5.668-26.573
			c0-35.803,29.127-64.93,64.93-64.93s64.93,29.127,64.93,64.93c0,25.464-14.997,48.7-38.207,59.195
			c-4.353,1.969-6.288,7.094-4.319,11.447c1.445,3.196,4.593,5.089,7.888,5.089c1.192,0,2.403-0.248,3.56-0.771
			c29.39-13.289,48.381-42.714,48.381-74.961C458.49,103.387,421.601,66.499,376.257,66.499z"/>
</svg>
