<svg xmlns="http://www.w3.org/2000/svg" xmlns:xlink="http://www.w3.org/1999/xlink">

<symbol id="icon-facebook" viewBox="0 0 512 512">
<path d="m297.277344 508.667969c-2.132813.347656-4.273438.667969-6.421875.960937 2.148437-.292968 4.289062-.613281 6.421875-.960937zm0 0"/><path d="m302.398438 507.792969c-1.019532.1875-2.039063.359375-3.058594.535156 1.019531-.175781 2.039062-.347656 3.058594-.535156zm0 0"/><path d="m285.136719 510.339844c-2.496094.28125-5.007813.53125-7.527344.742187 2.519531-.210937 5.03125-.460937 7.527344-.742187zm0 0"/><path d="m290.054688 509.738281c-1.199219.160157-2.40625.308594-3.609376.449219 1.203126-.140625 2.410157-.289062 3.609376-.449219zm0 0"/><path d="m309.367188 506.410156c-.898438.191406-1.800782.382813-2.703126.566406.902344-.183593 1.804688-.375 2.703126-.566406zm0 0"/><path d="m326.664062 502.113281c-.726562.207031-1.453124.402344-2.179687.605469.726563-.203125 1.453125-.398438 2.179687-.605469zm0 0"/><path d="m321.433594 503.542969c-.789063.207031-1.582032.417969-2.375.617187.792968-.199218 1.585937-.40625 2.375-.617187zm0 0"/><path d="m314.589844 505.253906c-.835938.195313-1.679688.378906-2.523438.566406.84375-.1875 1.6875-.371093 2.523438-.566406zm0 0"/><path d="m277.527344 511.089844c-1.347656.113281-2.695313.214844-4.046875.304687 1.351562-.089843 2.699219-.191406 4.046875-.304687zm0 0"/><path d="m512 256c0-141.363281-114.636719-256-256-256s-256 114.636719-256 256 114.636719 256 256 256c1.503906 0 3-.03125 4.5-.058594v-199.285156h-55v-64.097656h55v-47.167969c0-54.703125 33.394531-84.476563 82.191406-84.476563 23.367188 0 43.453125 1.742188 49.308594 2.519532v57.171875h-33.648438c-26.546874 0-31.6875 12.617187-31.6875 31.128906v40.824219h63.476563l-8.273437 64.097656h-55.203126v189.453125c107.003907-30.675781 185.335938-129.257813 185.335938-246.109375zm0 0"/><path d="m272.914062 511.429688c-2.664062.171874-5.339843.308593-8.023437.398437 2.683594-.089844 5.359375-.226563 8.023437-.398437zm0 0"/><path d="m264.753906 511.835938c-1.414062.046874-2.832031.082031-4.25.105468 1.417969-.023437 2.835938-.058594 4.25-.105468zm0 0"/>
</symbol>

<symbol id="icon-github" viewBox="0 0 32 32"><path d="M16 0.395c-8.836 0-16 7.163-16 16 0 7.069 4.585 13.067 10.942 15.182 0.8 0.148 1.094-0.347 1.094-0.77 0-0.381-0.015-1.642-0.022-2.979-4.452 0.968-5.391-1.888-5.391-1.888-0.728-1.849-1.776-2.341-1.776-2.341-1.452-0.993 0.11-0.973 0.11-0.973 1.606 0.113 2.452 1.649 2.452 1.649 1.427 2.446 3.743 1.739 4.656 1.33 0.143-1.034 0.558-1.74 1.016-2.14-3.554-0.404-7.29-1.777-7.29-7.907 0-1.747 0.625-3.174 1.649-4.295-0.166-0.403-0.714-2.030 0.155-4.234 0 0 1.344-0.43 4.401 1.64 1.276-0.355 2.645-0.532 4.005-0.539 1.359 0.006 2.729 0.184 4.008 0.539 3.054-2.070 4.395-1.64 4.395-1.64 0.871 2.204 0.323 3.831 0.157 4.234 1.026 1.12 1.647 2.548 1.647 4.295 0 6.145-3.743 7.498-7.306 7.895 0.574 0.497 1.085 1.47 1.085 2.963 0 2.141-0.019 3.864-0.019 4.391 0 0.426 0.288 0.925 1.099 0.768 6.354-2.118 10.933-8.113 10.933-15.18 0-8.837-7.164-16-16-16z"></path></symbol>


<symbol id="icon-instagram" viewBox="0 0 512 512">
<path d="m305 256c0 27.0625-21.9375 49-49 49s-49-21.9375-49-49 21.9375-49 49-49 49 21.9375 49 49zm0 0"/><path d="m370.59375 169.304688c-2.355469-6.382813-6.113281-12.160157-10.996094-16.902344-4.742187-4.882813-10.515625-8.640625-16.902344-10.996094-5.179687-2.011719-12.960937-4.40625-27.292968-5.058594-15.503906-.707031-20.152344-.859375-59.402344-.859375-39.253906 0-43.902344.148438-59.402344.855469-14.332031.65625-22.117187 3.050781-27.292968 5.0625-6.386719 2.355469-12.164063 6.113281-16.902344 10.996094-4.882813 4.742187-8.640625 10.515625-11 16.902344-2.011719 5.179687-4.40625 12.964843-5.058594 27.296874-.707031 15.5-.859375 20.148438-.859375 59.402344 0 39.25.152344 43.898438.859375 59.402344.652344 14.332031 3.046875 22.113281 5.058594 27.292969 2.359375 6.386719 6.113281 12.160156 10.996094 16.902343 4.742187 4.882813 10.515624 8.640626 16.902343 10.996094 5.179688 2.015625 12.964844 4.410156 27.296875 5.0625 15.5.707032 20.144532.855469 59.398438.855469 39.257812 0 43.90625-.148437 59.402344-.855469 14.332031-.652344 22.117187-3.046875 27.296874-5.0625 12.820313-4.945312 22.953126-15.078125 27.898438-27.898437 2.011719-5.179688 4.40625-12.960938 5.0625-27.292969.707031-15.503906.855469-20.152344.855469-59.402344 0-39.253906-.148438-43.902344-.855469-59.402344-.652344-14.332031-3.046875-22.117187-5.0625-27.296874zm-114.59375 162.179687c-41.691406 0-75.488281-33.792969-75.488281-75.484375s33.796875-75.484375 75.488281-75.484375c41.6875 0 75.484375 33.792969 75.484375 75.484375s-33.796875 75.484375-75.484375 75.484375zm78.46875-136.3125c-9.742188 0-17.640625-7.898437-17.640625-17.640625s7.898437-17.640625 17.640625-17.640625 17.640625 7.898437 17.640625 17.640625c-.003906 9.742188-7.898437 17.640625-17.640625 17.640625zm0 0"/><path d="m256 0c-141.363281 0-256 114.636719-256 256s114.636719 256 256 256 256-114.636719 256-256-114.636719-256-256-256zm146.113281 316.605469c-.710937 15.648437-3.199219 26.332031-6.832031 35.683593-7.636719 19.746094-23.246094 35.355469-42.992188 42.992188-9.347656 3.632812-20.035156 6.117188-35.679687 6.832031-15.675781.714844-20.683594.886719-60.605469.886719-39.925781 0-44.929687-.171875-60.609375-.886719-15.644531-.714843-26.332031-3.199219-35.679687-6.832031-9.8125-3.691406-18.695313-9.476562-26.039063-16.957031-7.476562-7.339844-13.261719-16.226563-16.953125-26.035157-3.632812-9.347656-6.121094-20.035156-6.832031-35.679687-.722656-15.679687-.890625-20.6875-.890625-60.609375s.167969-44.929688.886719-60.605469c.710937-15.648437 3.195312-26.332031 6.828125-35.683593 3.691406-9.808594 9.480468-18.695313 16.960937-26.035157 7.339844-7.480469 16.226563-13.265625 26.035157-16.957031 9.351562-3.632812 20.035156-6.117188 35.683593-6.832031 15.675781-.714844 20.683594-.886719 60.605469-.886719s44.929688.171875 60.605469.890625c15.648437.710937 26.332031 3.195313 35.683593 6.824219 9.808594 3.691406 18.695313 9.480468 26.039063 16.960937 7.476563 7.34375 13.265625 16.226563 16.953125 26.035157 3.636719 9.351562 6.121094 20.035156 6.835938 35.683593.714843 15.675781.882812 20.683594.882812 60.605469s-.167969 44.929688-.886719 60.605469zm0 0"/>
</symbol>

<symbol id="icon-linkedin" viewBox="0 0 512 512">
<path d="m256 0c-141.363281 0-256 114.636719-256 256s114.636719 256 256 256 256-114.636719 256-256-114.636719-256-256-256zm-74.390625 387h-62.347656v-187.574219h62.347656zm-31.171875-213.1875h-.40625c-20.921875 0-34.453125-14.402344-34.453125-32.402344 0-18.40625 13.945313-32.410156 35.273437-32.410156 21.328126 0 34.453126 14.003906 34.859376 32.410156 0 18-13.53125 32.402344-35.273438 32.402344zm255.984375 213.1875h-62.339844v-100.347656c0-25.21875-9.027343-42.417969-31.585937-42.417969-17.222656 0-27.480469 11.601563-31.988282 22.800781-1.648437 4.007813-2.050781 9.609375-2.050781 15.214844v104.75h-62.34375s.816407-169.976562 0-187.574219h62.34375v26.558594c8.285157-12.78125 23.109375-30.960937 56.1875-30.960937 41.019531 0 71.777344 26.808593 71.777344 84.421874zm0 0"/>
</symbol>

<symbol id="icon-youtube" viewBox="0 0 512 512">
<path d="m224.113281 303.960938 83.273438-47.960938-83.273438-47.960938zm0 0"/><path d="m256 0c-141.363281 0-256 114.636719-256 256s114.636719 256 256 256 256-114.636719 256-256-114.636719-256-256-256zm159.960938 256.261719s0 51.917969-6.585938 76.953125c-3.691406 13.703125-14.496094 24.507812-28.199219 28.195312-25.035156 6.589844-125.175781 6.589844-125.175781 6.589844s-99.878906 0-125.175781-6.851562c-13.703125-3.6875-24.507813-14.496094-28.199219-28.199219-6.589844-24.769531-6.589844-76.949219-6.589844-76.949219s0-51.914062 6.589844-76.949219c3.6875-13.703125 14.757812-24.773437 28.199219-28.460937 25.035156-6.589844 125.175781-6.589844 125.175781-6.589844s100.140625 0 125.175781 6.851562c13.703125 3.6875 24.507813 14.496094 28.199219 28.199219 6.851562 25.035157 6.585938 77.210938 6.585938 77.210938zm0 0"/>
</symbol>

<symbol id="icon-seal" viewBox="0 0 512 512">
<path d="M477.589,167.171l-22.333-15.745-.31-27.322a8,8,0,0,0-5.089-7.362l-25.449-9.937-6.815-26.457a8,8,0,0,0-6.7-5.935L383.814,70.82,370.887,46.75a8.016,8.016,0,0,0-7.925-4.167l-27.162,3L317.46,25.32a7.994,7.994,0,0,0-8.7-2.136l-25.636,9.449L260.471,17.365a8,8,0,0,0-8.942,0L228.873,32.633l-25.638-9.45a8,8,0,0,0-8.7,2.137L176.2,45.579l-27.161-2.995a7.992,7.992,0,0,0-7.925,4.167l-12.927,24.07L101.1,74.414a8,8,0,0,0-6.7,5.936l-6.814,26.457-25.449,9.937a8,8,0,0,0-5.089,7.361l-.31,27.322L34.41,167.172a8,8,0,0,0-3.177,8.374l6.27,26.6L19.62,222.8a8,8,0,0,0-1.07,8.884L31.011,256,18.55,280.312a8,8,0,0,0,1.07,8.884L37.5,309.858l-6.27,26.6a8,8,0,0,0,3.178,8.373l22.333,15.745.31,27.322a8,8,0,0,0,5.089,7.362L87.592,405.2l6.815,26.457a8,8,0,0,0,6.7,5.935l27.083,3.593,12.927,24.07a8.016,8.016,0,0,0,7.925,4.167l27.162-2.995,18.34,20.258a8,8,0,0,0,8.7,2.136l25.636-9.449,22.656,15.268a8,8,0,0,0,8.942,0l22.656-15.268,25.638,9.45a8.008,8.008,0,0,0,8.7-2.137l18.34-20.259,27.161,3a8,8,0,0,0,7.925-4.167l12.927-24.07,27.084-3.593a8,8,0,0,0,6.7-5.936l6.814-26.457,25.449-9.937a8,8,0,0,0,5.089-7.361l.31-27.322,22.333-15.745a8,8,0,0,0,3.177-8.374l-6.27-26.6L492.38,289.2a8,8,0,0,0,1.07-8.884L480.989,256l12.461-24.312a8,8,0,0,0-1.07-8.884L474.5,202.142l6.27-26.6A8,8,0,0,0,477.589,167.171Zm-.839,62.022-11.869,23.159a7.991,7.991,0,0,0,0,7.3l11.869,23.159-17.026,19.671a8,8,0,0,0-1.738,7.071l5.968,25.316-21.26,14.989a8,8,0,0,0-3.389,6.447l-.3,26.014-24.237,9.464a8,8,0,0,0-4.836,5.457l-6.491,25.2-25.793,3.421a8,8,0,0,0-6,4.146L359.348,452.92l-25.856-2.852a8.009,8.009,0,0,0-6.807,2.583l-17.457,19.285-24.41-9a8.011,8.011,0,0,0-7.237.873L256,478.354l-21.581-14.543a8,8,0,0,0-7.237-.872l-24.408,9-17.457-19.284a8.012,8.012,0,0,0-6.807-2.583l-25.857,2.852L140.344,430a8,8,0,0,0-6-4.146l-25.792-3.421-6.492-25.2a8,8,0,0,0-4.836-5.456l-24.237-9.464L72.7,356.3a8,8,0,0,0-3.389-6.448l-21.26-14.988,5.967-25.317a7.994,7.994,0,0,0-1.738-7.07L35.25,282.807l11.869-23.159a7.991,7.991,0,0,0,0-7.3L35.25,229.193l17.026-19.671a8,8,0,0,0,1.738-7.071l-5.968-25.316,21.26-14.989a8,8,0,0,0,3.389-6.447l.3-26.014,24.237-9.464a8,8,0,0,0,4.836-5.457l6.491-25.2,25.793-3.421a8,8,0,0,0,6-4.146L152.652,59.08l25.856,2.852a8.02,8.02,0,0,0,6.807-2.583l17.457-19.285,24.41,9a8.011,8.011,0,0,0,7.237-.873L256,33.646l21.581,14.543a8,8,0,0,0,7.237.872l24.408-9,17.457,19.284a8.016,8.016,0,0,0,6.807,2.583l25.857-2.852L371.656,82a8,8,0,0,0,6,4.146l25.792,3.421,6.492,25.2a8,8,0,0,0,4.836,5.456l24.237,9.464L439.3,155.7a8,8,0,0,0,3.389,6.448l21.26,14.988-5.967,25.317a7.994,7.994,0,0,0,1.738,7.07Z"/><path d="M400,256v.336h16V256a162.509,162.509,0,0,0-.862-16.71l-15.914,1.652A146.786,146.786,0,0,1,400,256Z"/><path d="M124.34,314.416l-14.621,6.5a160.486,160.486,0,0,0,7.6,14.927l13.86-7.994A144.357,144.357,0,0,1,124.34,314.416Z"/><path d="M148.779,374.761a161.176,161.176,0,0,0,12.99,10.559L171.2,372.4a145.236,145.236,0,0,1-11.694-9.508Z"/><path d="M363.034,159.666a145.482,145.482,0,0,1,9.493,11.714l12.938-9.414a161.908,161.908,0,0,0-10.54-13Z"/><path d="M206.315,408.134a160.045,160.045,0,0,0,16.176,4.35l3.336-15.648a143.491,143.491,0,0,1-14.547-3.913Z"/><path d="M396.885,226.06l15.654-3.311a159.737,159.737,0,0,0-4.324-16.185L393,211.5A143.423,143.423,0,0,1,396.885,226.06Z"/><path d="M387.6,197.438l14.613-6.514A159.893,159.893,0,0,0,394.6,176l-13.85,8.012A144.047,144.047,0,0,1,387.6,197.438Z"/><path d="M239.026,415.109a162.471,162.471,0,0,0,16.709.89l.026-16a146.142,146.142,0,0,1-15.055-.8Z"/><path d="M139.38,340.492l-12.949,9.4a160.8,160.8,0,0,0,10.527,13.018l11.9-10.695A145.314,145.314,0,0,1,139.38,340.492Z"/><path d="M363.09,137.121a161.154,161.154,0,0,0-13-10.547l-9.416,12.936a144.918,144.918,0,0,1,11.7,9.494Z"/><path d="M336.059,117.441a160.432,160.432,0,0,0-14.908-7.616l-6.523,14.61a144.437,144.437,0,0,1,13.415,6.854Z"/><path d="M211.578,118.979l-4.93-15.22a159.361,159.361,0,0,0-15.644,6l6.506,14.617A143.736,143.736,0,0,1,211.578,118.979Z"/><path d="M241.021,112.769l-1.642-15.916a160.692,160.692,0,0,0-16.542,2.588l3.3,15.657A143.628,143.628,0,0,1,241.021,112.769Z"/><path d="M272.8,96.871A162.463,162.463,0,0,0,256.089,96l-.008,16a146.433,146.433,0,0,1,15.055.785Z"/><path d="M305.517,103.812a160.3,160.3,0,0,0-16.178-4.333l-3.322,15.651a144,144,0,0,1,14.552,3.9Z"/><path d="M372.35,340.863l12.92,9.44a161,161,0,0,0,9.156-14.014l-13.832-8.041A144.874,144.874,0,0,1,372.35,340.863Z"/><path d="M327.778,380.864l7.989,13.864a160.856,160.856,0,0,0,14.051-9.108l-9.39-12.953A144.789,144.789,0,0,1,327.778,380.864Z"/><path d="M175.787,394.47a160.228,160.228,0,0,0,14.9,7.634l6.539-14.6a143.939,143.939,0,0,1-13.407-6.869Z"/><path d="M352.154,363.2,362.842,375.1A161.4,161.4,0,0,0,374.7,363.287l-11.867-10.732A145.267,145.267,0,0,1,352.154,363.2Z"/><path d="M387.468,314.848l14.6,6.545a159.379,159.379,0,0,0,6.038-15.623L392.9,300.8A143.733,143.733,0,0,1,387.468,314.848Z"/><path d="M300.271,393.069l4.912,15.227a159.193,159.193,0,0,0,15.652-5.979l-6.49-14.625A143.129,143.129,0,0,1,300.271,393.069Z"/><path d="M115.148,225.9,99.5,222.577a160.359,160.359,0,0,0-2.616,16.538l15.912,1.67A144.113,144.113,0,0,1,115.148,225.9Z"/><path d="M112,256v-.168H96V256a162.16,162.16,0,0,0,.845,16.535l15.916-1.637A146.2,146.2,0,0,1,112,256Z"/><path d="M270.82,399.247l1.625,15.918a160.779,160.779,0,0,0,16.543-2.57l-3.279-15.66A144.624,144.624,0,0,1,270.82,399.247Z"/><path d="M124.467,197.3l-14.608-6.529a159.819,159.819,0,0,0-6.019,15.63l15.213,4.955A143.709,143.709,0,0,1,124.467,197.3Z"/><path d="M115.083,285.784l-15.658,3.293a159.813,159.813,0,0,0,4.306,16.191l15.225-4.922A143.21,143.21,0,0,1,115.083,285.784Z"/><path d="M396.818,286.252l15.647,3.346a160.286,160.286,0,0,0,2.635-16.536l-15.911-1.687A144.248,144.248,0,0,1,396.818,286.252Z"/><path d="M159.727,148.912l-10.7-11.894a161.786,161.786,0,0,0-11.845,11.828l11.879,10.718A145.863,145.863,0,0,1,159.727,148.912Z"/><path d="M139.557,171.266l-12.93-9.426a161.147,161.147,0,0,0-9.142,14.023l13.842,8.026A144.622,144.622,0,0,1,139.557,171.266Z"/><path d="M184.084,131.215l-8-13.856a161.2,161.2,0,0,0-14.044,9.124l9.406,12.944A144.381,144.381,0,0,1,184.084,131.215Z"/><path d="M384,256A128,128,0,1,0,256,384,128.146,128.146,0,0,0,384,256ZM256,368A112,112,0,1,1,368,256,112.127,112.127,0,0,1,256,368Z"/><path d="M328.971,207.029a24.031,24.031,0,0,0-33.942,0L224,278.059l-15.029-15.03a24,24,0,0,0-33.942,33.942l32,32a24,24,0,0,0,33.942,0l88-88a24,24,0,0,0,0-33.942Zm-11.315,22.627-88,88a8,8,0,0,1-11.312,0l-32-32a8,8,0,0,1,11.314-11.312l20.687,20.685a8,8,0,0,0,11.313,0l76.687-76.685a8,8,0,1,1,11.312,11.312Z"/><path d="M256,64C150.131,64,64,150.131,64,256s86.131,192,192,192,192-86.131,192-192S361.869,64,256,64Zm0,368c-97.047,0-176-78.953-176-176S158.953,80,256,80s176,78.953,176,176S353.047,432,256,432Z"/>
</symbol>

<symbol id="icon-location" viewBox="0 0 32 32">
<path d="M16 0C10.477 0 6 4.477 6 10c0 10 10 22 10 22s10-12 10-22c0-5.523-4.477-10-10-10zm0 16.125a6.125 6.125 0 1 1 0-12.25 6.125 6.125 0 0 1 0 12.25zM12.125 10a3.875 3.875 0 1 1 7.75 0 3.875 3.875 0 0 1-7.75 0z"></path>
</symbol>

<symbol id="icon-rocket" viewBox="0 0 32 32">
<path d="M22 2L12 12H6l-6 8s6.357-1.77 10.065-.94L0 32l13.184-10.255C15.023 25.953 12 32 12 32l8-6v-6l10-10 2-10-10 2z"></path>
</symbol>


<symbol id="icon-arrow-drop" viewBox="0 0 451.846 451.847">
<path d="M345.441,248.292L151.154,442.573c-12.359,12.365-32.397,12.365-44.75,0c-12.354-12.354-12.354-32.391,0-44.744
L278.318,225.92L106.409,54.017c-12.354-12.359-12.354-32.394,0-44.748c12.354-12.359,32.391-12.359,44.75,0l194.287,194.284
c6.177,6.18,9.262,14.271,9.262,22.366C354.708,234.018,351.617,242.115,345.441,248.292z"/>
</symbol>


<symbol id="icon-map" viewBox="0 0 64 64">
<g><path d="m48 19c3.859 0 7-3.14 7-7s-3.141-7-7-7-7 3.14-7 7 3.141 7 7 7zm0-12c2.757 0 5 2.243 5 5s-2.243 5-5 5-5-2.243-5-5 2.243-5 5-5z"/><path d="m16 45c-1.654 0-3 1.346-3 3s1.346 3 3 3 3-1.346 3-3-1.346-3-3-3zm0 4c-.552 0-1-.449-1-1s.448-1 1-1 1 .449 1 1-.448 1-1 1z"/>
<path d="m53.935 23c.303-.476.62-.942.967-1.389l1.78-2.289c1.495-1.921 2.318-4.319 2.318-6.753v-.569c0-6.065-4.935-11-11-11s-11 4.935-11 11v.569c0 2.434.823 4.833 2.317 6.753l1.78 2.289c.347.447.665.914.967 1.389h-41.064v40h62v-40zm-13.039-4.905c-1.223-1.573-1.896-3.535-1.896-5.526v-.569c0-4.962 4.037-9 9-9s9 4.038 9 9v.569c0 1.991-.673 3.954-1.896 5.526l-1.78 2.289c-2.144 2.756-3.537 6.039-4.031 9.495-.092.639-.647 1.121-1.293 1.121s-1.201-.482-1.293-1.122c-.494-3.456-1.888-6.739-4.031-9.495zm7.104 16.905c-5.494 0-9-1.777-9-3 0-.804 1.794-2.151 5.57-2.729.057.296.114.592.157.891.232 1.618 1.639 2.838 3.273 2.838s3.041-1.22 3.273-2.838c.043-.299.099-.595.157-.89 3.776.577 5.57 1.924 5.57 2.728 0 1.223-3.506 3-9 3zm-3.929-7.686c-4.332.701-7.071 2.484-7.071 4.686 0 3.045 4.982 4.776 10 4.98v5.02c0 .551-.448 1-1 1h-10c-.552 0-1-.449-1-1v-5c0-1.654-1.346-3-3-3s-3 1.346-3 3v19c0 .551-.448 1-1 1s-1-.449-1-1v-6c0-1.654-1.346-3-3-3h-1.08c-.339-2.353-1.848-4.326-3.92-5.315v-16.685h24.168c.354.75.655 1.523.903 2.314zm-31.071 27.001c.911.434 1.926.685 3 .685.34 0 .672-.033 1-.08v6.08h-4zm3-1.315c-2.757 0-5-2.243-5-5s2.243-5 5-5 5 2.243 5 5-2.243 5-5 5zm-3-28h4v16.08c-.328-.047-.66-.08-1-.08-1.074 0-2.089.251-3 .685v-6.685h-10v-4h10zm-2 0v4h-8v-4zm-8 12h8v6.111c-1.235 1.262-2 2.987-2 4.889s.765 3.627 2 4.889v8.111h-8zm58 24h-42v-6.685c2.072-.989 3.581-2.962 3.92-5.315h1.08c.552 0 1 .449 1 1v6c0 1.654 1.346 3 3 3s3-1.346 3-3v-19c0-.551.448-1 1-1s1 .449 1 1v5c0 1.654 1.346 3 3 3h10c1.654 0 3-1.346 3-3v-5.02c5.018-.204 10-1.935 10-4.98 0-2.202-2.739-3.985-7.071-4.686.248-.792.55-1.564.903-2.314h8.168z"/><path d="m57 57h2v2h-2z"/><path d="m53 57h2v2h-2z"/>
<path d="m49 57h2v2h-2z"/><path d="m49 53h10v2h-10z"/><path d="m49 49h10v2h-10z"/></g>
</symbol>

<symbol id="icon-link" viewBox="0 0 512 512">
<path d="m162.457 434.408c-23.427 23.444-61.433 23.444-84.861 0-23.075-23.059-23.443-60.249-1.088-83.757l126.465-126.465c-39.112-10.458-82.481-.832-113.748 28.904l-56.231 56.231c-44.711 47.015-43.975 121.395 2.176 167.514 46.855 46.887 122.867 46.887 169.722 0l51.846-51.846c31.425-31.404 41.785-75.905 31.086-115.947z"/><path d="m476.835 35.17c-46.119-46.151-120.499-46.887-167.514-2.176l-56.231 56.231c-29.735 31.268-39.361 74.637-28.904 113.748l126.465-126.465c23.508-22.355 60.697-21.987 83.757 1.088 23.444 23.428 23.443 61.433 0 84.861l-125.367 125.367c40.042 10.699 84.543.34 115.947-31.086l51.846-51.846c46.888-46.855 46.888-122.867.001-169.722z"/><path d="m164.774 347.228c11.714 11.722 30.717 11.722 42.43 0l140.023-140.023c11.722-11.714 11.722-30.717 0-42.43-11.53-11.538-30.125-11.722-41.878-.544l-141.12 141.12c-11.177 11.752-10.993 30.347.545 41.877z"/>
</symbol>

<symbol id="icon-copy" viewBox="0 0 561 561">
<path d="M395.25,0h-306c-28.05,0-51,22.95-51,51v357h51V51h306V0z M471.75,102h-280.5c-28.05,0-51,22.95-51,51v357
c0,28.05,22.95,51,51,51h280.5c28.05,0,51-22.95,51-51V153C522.75,124.95,499.8,102,471.75,102z M471.75,510h-280.5V153h280.5V510
z"/>
</symbol>

<symbol id="icon-mail-circle" viewBox="0 0 299.997 299.997">
<path d="M149.996,0C67.157,0,0.001,67.158,0.001,149.997c0,82.837,67.156,150,149.995,150s150-67.163,150-150
C299.996,67.158,232.835,0,149.996,0z M149.999,52.686l88.763,55.35H61.236L149.999,52.686z M239.868,196.423h-0.009
c0,8.878-7.195,16.072-16.072,16.072H76.211c-8.878,0-16.072-7.195-16.072-16.072v-84.865c0-0.939,0.096-1.852,0.252-2.749
l84.808,52.883c0.104,0.065,0.215,0.109,0.322,0.169c0.112,0.062,0.226,0.122,0.34,0.179c0.599,0.309,1.216,0.558,1.847,0.721
c0.065,0.018,0.13,0.026,0.195,0.041c0.692,0.163,1.393,0.265,2.093,0.265h0.005c0.005,0,0.01,0,0.01,0
c0.7,0,1.401-0.099,2.093-0.265c0.065-0.016,0.13-0.023,0.195-0.041c0.63-0.163,1.245-0.412,1.847-0.721
c0.114-0.057,0.228-0.117,0.34-0.179c0.106-0.06,0.218-0.104,0.322-0.169l84.808-52.883c0.156,0.897,0.252,1.808,0.252,2.749
V196.423z"/>
</symbol>


<symbol id="icon-download" viewBox="0 0 477.827 477.827">
<path d="M441.537,160.625c1.489-7.981,2.243-16.082,2.253-24.201C443.699,61.019,382.498-0.035,307.093,0.056
c-57.402,0.069-108.63,36.034-128.194,89.999c-35.029-13.944-74.73,3.148-88.675,38.177c-1.207,3.032-2.195,6.146-2.956,9.319
c-55.932,8.365-94.492,60.488-86.127,116.42c7.502,50.163,50.596,87.275,101.316,87.254h85.333
c9.426,0,17.067-7.641,17.067-17.067c0-9.426-7.641-17.067-17.067-17.067h-85.333c-37.703,0-68.267-30.564-68.267-68.267
s30.564-68.267,68.267-68.267c9.426,0,17.067-7.641,17.067-17.067c0.031-18.851,15.338-34.108,34.189-34.077
c8.915,0.015,17.471,3.517,23.837,9.757c6.713,6.616,17.519,6.537,24.135-0.176c2.484-2.521,4.123-5.751,4.69-9.245
c9.264-55.733,61.954-93.403,117.687-84.139c55.733,9.264,93.403,61.954,84.139,117.687c-0.552,3.323-1.269,6.617-2.146,9.869
c-1.962,7.124,0.883,14.701,7.049,18.773c31.416,20.845,39.985,63.212,19.139,94.628c-12.617,19.015-33.9,30.468-56.72,30.522
h-51.2c-9.426,0-17.067,7.641-17.067,17.067c0,9.426,7.641,17.067,17.067,17.067h51.2
c56.554-0.053,102.357-45.943,102.303-102.497C477.798,208.625,464.526,180.06,441.537,160.625z"/>
<path d="M353.07,363.292c-6.614-6.387-17.099-6.387-23.712,0l-56.235,56.201V170.558c0-9.426-7.641-17.067-17.067-17.067
c-9.426,0-17.067,7.641-17.067,17.067v248.934l-56.201-56.201c-6.78-6.548-17.584-6.36-24.132,0.419
c-6.388,6.614-6.388,17.099,0,23.713l85.333,85.333c6.656,6.673,17.463,6.687,24.136,0.03c0.01-0.01,0.02-0.02,0.031-0.03
l85.333-85.333C360.038,380.644,359.85,369.84,353.07,363.292z"/>
</symbol>

<symbol id="icon-arrow-right" viewBox="0 0 512 512">
<path d="M506.134,241.843c-0.006-0.006-0.011-0.013-0.018-0.019l-104.504-104c-7.829-7.791-20.492-7.762-28.285,0.068
c-7.792,7.829-7.762,20.492,0.067,28.284L443.558,236H20c-11.046,0-20,8.954-20,20c0,11.046,8.954,20,20,20h423.557
l-70.162,69.824c-7.829,7.792-7.859,20.455-0.067,28.284c7.793,7.831,20.457,7.858,28.285,0.068l104.504-104
c0.006-0.006,0.011-0.013,0.018-0.019C513.968,262.339,513.943,249.635,506.134,241.843z"/>
</symbol>

<symbol id="icon-download-phone" viewBox="0 0 950 950.001">
<path d="M95.532,171.291v731.634c0,25.999,21.077,47.076,47.076,47.076h452.304c25.999,0,47.076-21.077,47.076-47.076v-239
c-10.036,7.265-22.097,11.217-34.629,11.217c-13.029,0-25.554-4.256-35.816-12.08v104.296c0,19.297-15.642,34.938-34.939,34.938
H200.916c-19.296,0-34.939-15.643-34.939-34.938V230.766c0-19.296,15.642-34.938,34.939-34.938h206.413v-71.613H142.607
C116.607,124.215,95.532,145.291,95.532,171.291z M368.759,853.03c14.104,0,25.535,11.433,25.535,25.534
c0,14.103-11.433,25.535-25.535,25.535c-14.102,0-25.535-11.432-25.535-25.535C343.224,864.462,354.657,853.03,368.759,853.03z"/>
<path d="M750.244,0H462.795c-16.679,0-30.201,13.521-30.201,30.201v94.014v71.613V414.89H373.94
c-12.446,0-18.411,15.285-9.256,23.715l206.857,190.461l12.88,11.859c6.481,5.967,14.709,8.951,22.938,8.951
c8.228,0,16.455-2.984,22.937-8.951l11.692-10.766l208.045-191.555c9.156-8.43,3.191-23.715-9.255-23.715h-58.655V31.878
C782.122,14.272,767.849,0,750.244,0z"/>
</symbol>

<symbol id="icon-checked" viewBox="0 0 367.805 367.805">
<path style="fill:#3BB54A;" d="M183.903,0.001c101.566,0,183.902,82.336,183.902,183.902s-82.336,183.902-183.902,183.902
S0.001,285.469,0.001,183.903l0,0C-0.288,82.625,81.579,0.29,182.856,0.001C183.205,0,183.554,0,183.903,0.001z"/>
<polygon style="fill:#D4E1F4;" points="285.78,133.225 155.168,263.837 82.025,191.217 111.805,161.96 155.168,204.801 
256.001,103.968"/>
</symbol>

<symbol id="icon-group" viewBox="0 0 24 24">
<circle cx="4" cy="10" r="2"/><path d="m6.67 13.4c-1.01.76-1.67 1.98-1.67 3.35v.25h-4.25c-.41 0-.75-.34-.75-.75v-.5c0-1.52 1.23-2.75 2.75-2.75h2.5c.52 0 1.01.15 1.42.4z"/><circle cx="20" cy="10" r="2"/><path d="m24 15.75v.5c0 .41-.34.75-.75.75h-4.25v-.25c0-1.37-.66-2.59-1.67-3.35.41-.25.9-.4 1.42-.4h2.5c1.52 0 2.75 1.23 2.75 2.75z"/><circle cx="12" cy="9.5" r="3"/><path d="m14.75 14h-5.5c-1.517 0-2.75 1.233-2.75 2.75v1.5c0 .414.336.75.75.75h9.5c.414 0 .75-.336.75-.75v-1.5c0-1.517-1.233-2.75-2.75-2.75z"/>
</symbol>

<symbol id="icon-plus" viewBox="0 0 27.021 27.022">
<path d="M17.855,21.223c0-1.902,1.049-3.55,2.588-4.44c-0.963-0.308-2-0.552-3.09-0.722c2.342-1.299,3.929-3.794,3.929-6.663
c0-4.207-3.41-7.617-7.617-7.617s-7.617,3.41-7.617,7.617c0,2.868,1.587,5.364,3.929,6.663C4.223,16.958,0,19.897,0,23.389h18.35
C18.041,22.727,17.855,22,17.855,21.223z"/>
<path d="M23.004,17.206c-2.218,0-4.018,1.797-4.018,4.018c0,2.219,1.8,4.017,4.018,4.017c2.219,0,4.018-1.798,4.018-4.017
C27.02,19.002,25.223,17.206,23.004,17.206z M25.627,21.936h-1.909v1.91h-1.427v-1.91h-1.91v-1.429h1.91v-1.911h1.427v1.911h1.909
V21.936z"/>
</symbol>

<symbol id="icon-savings" viewBox="-29 0 487 487.71902">
<path d="m220.867188 266.175781c-.902344-.195312-1.828126-.230469-2.742188-.09375-9.160156-1.066406-16.070312-8.816406-16.085938-18.035156 0-4.417969-3.582031-8-8-8-4.417968 0-8 3.582031-8 8 .023438 15.394531 10.320313 28.878906 25.164063 32.953125v8c0 4.417969 3.582031 8 8 8s8-3.582031 8-8v-7.515625c17.132813-3.585937 28.777344-19.542969 26.976563-36.953125-1.804688-17.410156-16.472657-30.640625-33.976563-30.644531-10.03125 0-18.164063-8.132813-18.164063-18.164063s8.132813-18.164062 18.164063-18.164062 18.164063 8.132812 18.164063 18.164062c0 4.417969 3.582031 8 8 8 4.417968 0 8-3.582031 8-8-.023438-16.164062-11.347657-30.105468-27.164063-33.441406v-7.28125c0-4.417969-3.582031-8-8-8s-8 3.582031-8 8v7.769531c-16.507813 4.507813-27.132813 20.535157-24.859375 37.496094s16.746094 29.621094 33.859375 29.617187c9.898437 0 17.972656 7.925782 18.152344 17.820313.183593 9.894531-7.597657 18.113281-17.488281 18.472656zm0 0"/>
<path d="m104.195312 222.5c0 64.070312 51.9375 116.007812 116.007813 116.007812s116.007813-51.9375 116.007813-116.007812-51.9375-116.007812-116.007813-116.007812c-64.039063.070312-115.933594 51.96875-116.007813 116.007812zm116.007813-100.007812c55.234375 0 100.007813 44.773437 100.007813 100.007812s-44.773438 100.007812-100.007813 100.007812-100.007813-44.773437-100.007813-100.007812c.0625-55.207031 44.800782-99.945312 100.007813-100.007812zm0 0"/>
<path d="m375.648438 358.230469-62.667969 29.609375c-8.652344-16.09375-25.25-26.335938-43.515625-26.851563l-57.851563-1.589843c-9.160156-.261719-18.148437-2.582032-26.292969-6.789063l-5.886718-3.050781c-30.140625-15.710938-66.066406-15.671875-96.175782.101562l.367188-13.335937c.121094-4.417969-3.359375-8.097657-7.777344-8.21875l-63.4375-1.746094c-4.417968-.121094-8.09375 3.359375-8.214844 7.777344l-3.832031 139.210937c-.121093 4.417969 3.359375 8.097656 7.777344 8.21875l63.4375 1.746094h.21875c4.335937 0 7.882813-3.449219 8-7.78125l.183594-6.660156 16.480469-8.824219c6.46875-3.480469 14.03125-4.308594 21.097656-2.308594l98.414062 27.621094c.171875.050781.34375.089844.519532.128906 7.113281 1.488281 14.363281 2.234375 21.628906 2.230469 15.390625.007812 30.601562-3.308594 44.589844-9.730469.34375-.15625.675781-.339843.992187-.546875l142.691406-92.296875c3.554688-2.300781 4.703125-6.96875 2.621094-10.65625-10.59375-18.796875-34.089844-25.957031-53.367187-16.257812zm-359.070313 107.5625 3.390625-123.21875 47.441406 1.304687-3.390625 123.222656zm258.925781-2.09375c-17.378906 7.84375-36.789062 10.007812-55.46875 6.191406l-98.148437-27.550781c-11.046875-3.121094-22.871094-1.828125-32.976563 3.605468l-8.421875 4.511719 2.253907-81.925781c26.6875-17.75 60.914062-19.574219 89.335937-4.765625l5.886719 3.050781c10.289062 5.3125 21.636718 8.242188 33.210937 8.578125l57.855469 1.589844c16.25.46875 30.050781 12.039063 33.347656 27.960937l-86.175781-2.378906c-4.417969-.121094-8.09375 3.363282-8.21875 7.777344-.121094 4.417969 3.363281 8.097656 7.777344 8.21875l95.101562 2.617188h.222657c4.332031-.003907 7.875-3.453126 7.992187-7.78125.097656-3.476563-.160156-6.957032-.773437-10.378907l64.277343-30.371093c.0625-.027344.125-.058594.1875-.089844 9.117188-4.613282 20.140625-3.070313 27.640625 3.871094zm0 0"/>
<path d="m228.203125 84v-76c0-4.417969-3.582031-8-8-8s-8 3.582031-8 8v76c0 4.417969 3.582031 8 8 8s8-3.582031 8-8zm0 0"/><path d="m288.203125 84v-36c0-4.417969-3.582031-8-8-8s-8 3.582031-8 8v36c0 4.417969 3.582031 8 8 8s8-3.582031 8-8zm0 0"/>
<path d="m168.203125 84v-36c0-4.417969-3.582031-8-8-8s-8 3.582031-8 8v36c0 4.417969 3.582031 8 8 8s8-3.582031 8-8zm0 0"/>
</symbol>


<symbol id="icon-payment" viewBox="0 0 354.796 354.796">
<path d="M265.442,109.092c-10.602-4.25-13.665-6.82-13.665-11.461c0-3.714,2.813-8.053,10.744-8.053
c7.015,0,12.395,2.766,12.443,2.79c0.566,0.302,1.201,0.463,1.83,0.463c1.535,0,2.893-0.929,3.456-2.367l1.927-4.926
c0.671-1.795-0.347-3.359-1.645-3.92c-4.319-1.88-12.76-3.335-12.846-3.35c-0.136-0.024-0.609-0.125-0.609-0.678l-0.027-7.146
c0-2.152-1.797-3.904-4.003-3.904h-3.457c-2.204,0-4,1.751-4,3.905l0.009,7.513c0,0.576-0.624,0.826-0.852,0.879
c-10.655,2.538-17.314,10.343-17.314,20.188c0,12.273,10.145,17.819,21.099,21.982c8.757,3.438,12.329,6.924,12.329,12.037
c0,5.564-5.059,9.45-12.307,9.45c-6.189,0-14.565-3.923-14.648-3.963c-0.536-0.254-1.104-0.382-1.688-0.382
c-1.594,0-2.982,0.964-3.537,2.457l-1.84,4.982c-0.654,1.86,0.353,3.37,1.642,4.042c5.144,2.679,15.098,4.249,15.541,4.318
c0.119,0.017,0.725,0.23,0.725,0.784v7.48c0,2.152,1.797,3.904,4.004,3.904h3.572c2.208,0,4.005-1.751,4.005-3.904v-7.872
c0-0.736,0.543-0.801,0.655-0.828c11.351-2.55,18.343-10.855,18.343-21.283C285.325,121.518,279.377,114.597,265.442,109.092z"
/><path d="M260.979,22.509c-51.816,0-93.818,42.005-93.818,93.818c0,51.814,42.002,93.82,93.818,93.82
c51.814,0,93.817-42.006,93.817-93.82C354.796,64.514,312.793,22.509,260.979,22.509z M260.979,188.404
c-39.808,0-72.076-32.271-72.076-72.076s32.268-72.075,72.076-72.075c39.806,0,72.073,32.27,72.073,72.075
S300.785,188.404,260.979,188.404z"/><path d="M335.733,255.61c-19.95,11.011-47.389,21.192-74.753,25.484c-24.346,3.818-70.148-5.39-70.148-16.265
c0-4.121,40.17,10.154,64.469,3.671c18.633-4.971,15.988-22.401,5.853-24.7c-10.076-2.287-69.108-23.913-94.323-24.659
c-11.878-0.351-41.203,4.131-55.393,6.442c-4.861,0.791-7.909,0.704-8.213,5.356c-1.412,21.62-4.195,65.832-5.712,88.926
c-0.032,0.488,0.646,7.05,6.061,2.432c5.927-5.054,14.24-10.656,21.929-8.912c12.063,2.737,116.424,21.856,130.819,18.51
c20.593-4.787,78.888-39.334,90.065-50.072C363.711,265.176,350.244,247.601,335.733,255.61z"/>
<path d="M74.426,224.74l-54.672-2.694c-4.221-0.208-8.532,2.973-9.581,7.066l-9.941,90.255c-1.048,4.094,1.55,7.578,5.773,7.741
l60.59-0.006c4.224,0.163,7.942-3.151,8.266-7.365l6.654-86.958C81.837,228.566,78.647,224.948,74.426,224.74z M42.24,315.145
c-8.349,0-15.116-6.768-15.116-15.116c0-8.349,6.768-15.116,15.116-15.116s15.116,6.768,15.116,15.116
C57.356,308.378,50.589,315.145,42.24,315.145z"/>
</symbol>

<symbol id="icon-sendmail" viewBox="0 0 511.92 511.92">
<path d="M505.77,46.551c-4.773-3.978-11.344-5.013-17.109-2.697L56.482,218.293c-4.371,1.767-6.482,6.744-4.715,11.115
s6.744,6.482,11.115,4.715l412.86-166.588l-204.8,241.545c-3.047,3.596-2.602,8.981,0.994,12.028
c3.596,3.047,8.981,2.602,12.028-0.994L491.861,74.899l-27.785,139.469l-27.989,187.025c-0.384,2.617-1.96,4.909-4.267,6.204
c-2.212,1.235-4.877,1.358-7.194,0.333l-116.369-45.756l-55.842-23.381c-4.345-1.823-9.346,0.22-11.17,4.565
c-0.186,0.585-0.307,1.189-0.358,1.801h-0.205l-27.725,107.059l-39.782-138.965l207.36-154.453
c2.65-1.741,4.117-4.807,3.808-7.963c-0.309-3.156-2.342-5.88-5.279-7.074c-2.937-1.194-6.295-0.661-8.718,1.384L161.92,300.324
L11.682,239.507c-4.36-1.729-9.298,0.384-11.057,4.732c-1.759,4.348,0.321,9.3,4.657,11.089l151.04,61.116l40.277,140.612
c2.097,7.263,8.756,12.254,16.316,12.228h0.196c4.121-0.074,8.07-1.663,11.093-4.463c0.298-0.179,0.583-0.379,0.853-0.597
l82.483-84.343l110.592,43.853c7.107,3.019,15.214,2.565,21.939-1.229c6.93-3.844,11.682-10.689,12.86-18.526l27.913-186.675
l30.72-154.121C512.842,56.995,510.616,50.605,505.77,46.551z M236.877,427.786l18.014-69.436l28.211,11.844l7.27,2.884
L236.877,427.786z"/>
</symbol>


<symbol id="icon-shield" viewBox="-38 0 512 512.00142">
<path d="M 217.996094 158.457031 C 164.203125 158.457031 120.441406 202.21875 120.441406 256.007812 C 120.441406 309.800781 164.203125 353.5625 217.996094 353.5625 C 271.785156 353.5625 315.546875 309.800781 315.546875 256.007812 C 315.546875 202.21875 271.785156 158.457031 217.996094 158.457031 Z M 275.914062 237.636719 L 206.027344 307.523438 C 203.09375 310.457031 199.246094 311.925781 195.402344 311.925781 C 191.558594 311.925781 187.714844 310.460938 184.78125 307.523438 L 158.074219 280.816406 C 152.207031 274.953125 152.207031 265.441406 158.074219 259.574219 C 163.9375 253.707031 173.449219 253.707031 179.316406 259.574219 L 195.402344 275.660156 L 254.671875 216.394531 C 260.535156 210.527344 270.046875 210.527344 275.914062 216.394531 C 281.78125 222.257812 281.78125 231.769531 275.914062 237.636719 Z M 275.914062 237.636719 " style=" stroke:none;fill-rule:nonzero;fill:rgb(0%,0%,0%);fill-opacity:1;" />
<path d="M 435.488281 138.917969 L 435.472656 138.519531 C 435.25 133.601562 435.101562 128.398438 435.011719 122.609375 C 434.59375 94.378906 412.152344 71.027344 383.917969 69.449219 C 325.050781 66.164062 279.511719 46.96875 240.601562 9.042969 L 240.269531 8.726562 C 227.578125 -2.910156 208.433594 -2.910156 195.738281 8.726562 L 195.40625 9.042969 C 156.496094 46.96875 110.957031 66.164062 52.089844 69.453125 C 23.859375 71.027344 1.414062 94.378906 0.996094 122.613281 C 0.910156 128.363281 0.757812 133.566406 0.535156 138.519531 L 0.511719 139.445312 C -0.632812 199.472656 -2.054688 274.179688 22.9375 341.988281 C 36.679688 379.277344 57.492188 411.691406 84.792969 438.335938 C 115.886719 468.679688 156.613281 492.769531 205.839844 509.933594 C 207.441406 510.492188 209.105469 510.945312 210.800781 511.285156 C 213.191406 511.761719 215.597656 512 218.003906 512 C 220.410156 512 222.820312 511.761719 225.207031 511.285156 C 226.902344 510.945312 228.578125 510.488281 230.1875 509.925781 C 279.355469 492.730469 320.039062 468.628906 351.105469 438.289062 C 378.394531 411.636719 399.207031 379.214844 412.960938 341.917969 C 438.046875 273.90625 436.628906 199.058594 435.488281 138.917969 Z M 217.996094 383.605469 C 147.636719 383.605469 90.398438 326.367188 90.398438 256.007812 C 90.398438 185.648438 147.636719 128.410156 217.996094 128.410156 C 288.351562 128.410156 345.59375 185.648438 345.59375 256.007812 C 345.59375 326.367188 288.351562 383.605469 217.996094 383.605469 Z M 217.996094 383.605469 " style=" stroke:none;fill-rule:nonzero;fill:rgb(0%,0%,0%);fill-opacity:1;" />
</symbol>

<symbol id="icon-law" viewBox="0 0 64 64">
<path d="m62.707 48.793-11.543-11.543.836-.836.293.293c.195.19.451.293.707.293s.512-.098.707-.293l3-3c.391-.391.391-1.023 0-1.414l-5.707-5.707v-18.586c0-3.86-3.141-7-7-7h-38c-2.757 0-5 2.243-5 5v8c0 .552.447 1 1 1h7v43c0 2.757 2.243 5 5 5h36c2.757 0 5-2.243 5-5v-2c0-.552-.447-1-1-1h-3v-10.086l7.793 7.793c.195.195.451.293.707.293s.512-.098.707-.293l2.5-2.5c.391-.391.391-1.023 0-1.414zm-17.707-8.207-3.586-3.586 5.586-5.586 3.586 3.586zm-.414 2.414-1.586 1.586-5.586-5.586 1.586-1.586zm8.414-8.414-5.586-5.586 1.586-1.586 5.586 5.586zm-44-21.586h-6v-7c0-1.654 1.346-3 3-3s3 1.346 3 3zm44 45c0 1.654-1.346 3-3 3h-32.002c.629-.836 1.002-1.875 1.002-3v-1h34zm-4-3h-31c-.553 0-1 .448-1 1v2c0 1.654-1.346 3-3 3s-3-1.346-3-3v-52c0-1.13-.391-2.162-1.026-3h34.026c2.757 0 5 2.243 5 5v17c-.256 0-.512.098-.707.293l-3 3c-.391.391-.391 1.023 0 1.414l.293.293-5.586 5.586-.293-.293c-.391-.391-1.023-.391-1.414 0l-3 3c-.391.391-.391 1.023 0 1.414l7 7c.195.195.451.293.707.293s.512-.098.707-.293l3-3c.391-.391.391-1.023 0-1.414l-.293-.293.836-.836 1.75 1.75zm10.5-4.414-10.836-10.836 1.086-1.086 10.836 10.836z"/><path d="m14 19h33v2h-33z"/><path d="m14 27h29v2h-29z"/><path d="m14 23h33v2h-33z"/><path d="m14 11h33v2h-33z"/><path d="m14 7h33v2h-33z"/><path d="m14 15h33v2h-33z"/><path d="m14 31h27v2h-27z"/><path d="m22 35c-4.963 0-9 4.038-9 9s4.037 9 9 9 9-4.038 9-9-4.037-9-9-9zm0 16c-3.859 0-7-3.14-7-7s3.141-7 7-7 7 3.14 7 7-3.141 7-7 7z"/><path d="m22 39c-2.757 0-5 2.243-5 5s2.243 5 5 5 5-2.243 5-5-2.243-5-5-5zm0 8c-1.654 0-3-1.346-3-3s1.346-3 3-3 3 1.346 3 3-1.346 3-3 3z"/><path d="m39 49c0-.44-.288-.83-.71-.957-.42-.128-.878.035-1.122.402l-.336.504c-.856 1.284-2.289 2.051-3.832 2.051v2c1.745 0 3.392-.684 4.612-1.875.708 1.125 1.962 1.875 3.388 1.875h4v-2h-4c-1.103 0-2-.897-2-2z"/>
</symbol>


<symbol id="icon-document" viewBox="-24 0 496 496">
<path d="m16 48h240v56c0 4.425781 3.574219 8 8 8h56v64h16v-72c0-2.214844-.902344-4.214844-2.351562-5.664062l-63.976563-63.976563c-1.457031-1.457031-3.457031-2.359375-5.671875-2.359375h-216v-16h304v176h16v-184c0-4.425781-3.574219-8-8-8h-320c-4.425781 0-8 3.574219-8 8v24h-24c-4.425781 0-8 3.574219-8 8v448c0 4.425781 3.574219 8 8 8h272v-16h-264zm256 11.3125 36.6875 36.6875h-36.6875zm0 0"/><path d="m440 240h-12.046875c-35.722656 0-69.320313-15.734375-92.183594-43.167969l-1.617187-1.945312c-3.03125-3.65625-9.265625-3.65625-12.296875 0l-1.617188 1.9375c-22.871093 27.441406-56.46875 43.175781-92.191406 43.175781h-12.046875c-4.425781 0-8 3.574219-8 8v129.566406c0 31.503906 16.992188 60.785156 44.34375 76.410156l71.6875 40.96875c1.226562.703126 2.601562 1.054688 3.96875 1.054688s2.742188-.351562 3.96875-1.054688l71.6875-40.96875c27.351562-15.625 44.34375-44.90625 44.34375-76.410156v-129.566406c0-4.425781-3.574219-8-8-8zm-8 137.566406c0 25.777344-13.894531 49.730469-36.28125 62.511719l-67.71875 38.714844-67.71875-38.703125c-22.386719-12.792969-36.28125-36.746094-36.28125-62.523438v-121.566406h4.046875c38.175781 0 74.226563-15.863281 99.953125-43.769531 25.71875 27.90625 61.777344 43.769531 99.953125 43.769531h4.046875zm0 0"/><path d="m328 264c-48.519531 0-88 39.480469-88 88s39.480469 88 88 88 88-39.480469 88-88-39.480469-88-88-88zm0 160c-39.703125 0-72-32.296875-72-72s32.296875-72 72-72 72 32.296875 72 72-32.296875 72-72 72zm0 0"/><path d="m324.183594 376.871094-14.527344-14.527344-11.3125 11.3125 24 24c1.511719 1.519531 3.558594 2.34375 5.65625 2.34375.648438 0 1.304688-.078125 1.953125-.238281 2.734375-.691407 4.894531-2.769531 5.710937-5.464844l24-80-15.328124-4.59375zm0 0"/><path d="m32 128h208v16h-208zm0 0"/><path d="m32 160h208v16h-208zm0 0"/><path d="m32 192h208v16h-208zm0 0"/><path d="m32 224h160v16h-160zm0 0"/><path d="m32 256h160v16h-160zm0 0"/><path d="m32 288h160v16h-160zm0 0"/><path d="m32 384h160v16h-160zm0 0"/><path d="m32 416h160v16h-160zm0 0"/><path d="m32 448h160v16h-160zm0 0"/><path d="m40 64h16v16h-16zm0 0"/><path d="m72 64h16v16h-16zm0 0"/><path d="m104 64h16v16h-16zm0 0"/><path d="m136 64h104v16h-104zm0 0"/>
</symbol>

<symbol id="icon-field" viewBox="0 0 53 53">
<path d="M53,21.941v17c0,0.276-0.224,0.5-0.5,0.5h-52c-0.276,0-0.5-0.224-0.5-0.5v-16.5
c0-0.276,0.224-0.5,0.5-0.5s0.5,0.224,0.5,0.5v16h51v-16H23c-0.276,0-0.5-0.224-0.5-0.5c0-0.276,0.224-0.5,0.5-0.5h29.5
C52.776,21.441,53,21.665,53,21.941z M15.552,31.586l4.597-4.536c0.144-0.141,0.358-0.182,0.544-0.105
C20.879,27.023,21,27.204,21,27.406v4.535c0,0.276-0.224,0.5-0.5,0.5h-4.597c-0.203,0-0.386-0.123-0.462-0.311
C15.363,31.943,15.407,31.727,15.552,31.586z M17.122,31.441H20v-2.839L17.122,31.441z M2.203,18.655
c-0.094-0.094-0.146-0.221-0.146-0.354s0.053-0.26,0.146-0.354l4.243-4.242c0.195-0.195,0.512-0.195,0.707,0l1.414,1.414
c0.094,0.094,0.146,0.221,0.146,0.354s-0.053,0.26-0.146,0.354l-4.243,4.242c-0.098,0.098-0.226,0.146-0.354,0.146
s-0.256-0.049-0.354-0.146L2.203,18.655z M3.263,18.302l0.707,0.707l3.536-3.535l-0.707-0.707L3.263,18.302z M5.03,20.777
l4.243-4.243c0.188-0.188,0.52-0.188,0.707,0l9.192,9.192c0.195,0.195,0.195,0.512,0,0.707l-4.243,4.243
c-0.098,0.098-0.226,0.146-0.354,0.146s-0.256-0.049-0.354-0.146l-9.192-9.192c-0.094-0.094-0.146-0.221-0.146-0.354
S4.937,20.871,5.03,20.777z M6.091,21.131l8.485,8.485l3.536-3.536l-8.485-8.485L6.091,21.131z"/>
</symbol>


<symbol id="icon-arrowdown" viewBox="0 0 490.688 490.688">
<path style="fill:#FFC107;" d="M472.328,120.529L245.213,347.665L18.098,120.529c-4.237-4.093-10.99-3.975-15.083,0.262
c-3.992,4.134-3.992,10.687,0,14.82l234.667,234.667c4.165,4.164,10.917,4.164,15.083,0l234.667-234.667
c4.237-4.093,4.354-10.845,0.262-15.083c-4.093-4.237-10.845-4.354-15.083-0.262c-0.089,0.086-0.176,0.173-0.262,0.262
L472.328,120.529z"/>
<path d="M245.213,373.415c-2.831,0.005-5.548-1.115-7.552-3.115L2.994,135.633c-4.093-4.237-3.975-10.99,0.262-15.083
c4.134-3.992,10.687-3.992,14.82,0l227.136,227.115l227.115-227.136c4.093-4.237,10.845-4.354,15.083-0.262
c4.237,4.093,4.354,10.845,0.262,15.083c-0.086,0.089-0.173,0.176-0.262,0.262L252.744,370.279
C250.748,372.281,248.039,373.408,245.213,373.415z"/>
</symbol>

<symbol id="icon-arrowdown-double" viewBox="0 0 192.701 192.701">
<path d="M171.955,88.526l-75.61,74.528l-75.61-74.54c-4.74-4.704-12.439-4.704-17.179,0c-4.74,4.704-4.74,12.319,0,17.011
l84.2,82.997c4.559,4.511,12.608,4.535,17.191,0l84.2-83.009c4.74-4.692,4.74-12.319,0-17.011
C184.394,83.823,176.695,83.823,171.955,88.526z"/>
<path d="M87.755,104.322c4.559,4.511,12.608,4.535,17.191,0l84.2-82.997c4.74-4.704,4.74-12.319,0-17.011
c-4.74-4.704-12.439-4.704-17.179,0L96.345,78.842L20.734,4.314c-4.74-4.704-12.439-4.704-17.179,0
c-4.74,4.704-4.74,12.319,0,17.011L87.755,104.322z"/>
</symbol>

<symbol id="icon-form" viewBox="0 0 512 512">
<path d="m46.443 0v512h419.113v-512zm389.114 482h-359.114v-452h89.89v70.333h179.334v-70.333h89.89zm-119.89-452v40.333h-119.334v-40.333z"/>
<path d="m194.832 155.667h183.835v30h-183.835z"/>
<path d="m133.333 155.667h31.499v30h-31.499z"/>
<path d="m194.832 219.667h183.835v30h-183.835z"/>
<path d="m133.333 219.667h31.499v30h-31.499z"/>
<path d="m133.333 283.667h31.499v30h-31.499z"/>
<path d="m194.832 283.667h183.835v30h-183.835z"/>
<path d="m133.333 379.667h80v30h-80z"/>
<path d="m298.667 394.787-21.394-21.393-21.213 21.212 42.607 42.607 63.939-63.94-21.212-21.213z"/>
</symbol>


<symbol id="icon-location-circle" viewBox="0 0 299.997 299.997">
<circle cx="150.437" cy="110.572" r="24.149"/>
<path d="M149.996,0C67.157,0,0.001,67.158,0.001,149.997c0,82.837,67.156,150,149.995,150s150-67.163,150-150
C299.996,67.158,232.835,0,149.996,0z M149.685,68.678c0.106,0,0.21-0.005,0.314-0.01c0.104,0.005,0.207,0.01,0.314,0.01
c25.274,0.399,45.834,21.288,45.834,46.568c0,30.908-33.024,62.205-46.148,73.419c-0.877-0.75-1.849-1.595-2.889-2.521
c-0.018-0.016-0.034-0.029-0.049-0.044c-14.524-12.906-43.209-42.045-43.209-70.854
C103.851,89.966,124.413,69.078,149.685,68.678z M150.65,232.25c-27.663,0-55.669-7.936-55.669-23.098
c0-10.641,13.79-17.717,31.569-20.995c3.439,3.457,6.694,6.505,9.55,9.049c-19.366,2.163-30.744,8.294-30.744,11.943
c0,4.484,17.195,12.724,45.294,12.724c28.099,0,45.297-8.24,45.297-12.724c0-3.724-11.858-10.009-31.927-12.052
c2.881-2.573,6.162-5.649,9.627-9.142c18.313,3.188,32.674,10.335,32.674,21.197C206.321,224.314,178.315,232.25,150.65,232.25z"/>
</symbol>

<symbol id="icon-phone-circle" viewBox="0 0 300 300">
<circle cx="150.001" cy="226.085" r="11.718"/>
<path d="M182.691,68.248h-65.382c-3.665,0-6.647,2.843-6.647,6.331v123.592c0,3.491,2.98,6.331,6.647,6.331h65.382
c3.665,0,6.647-2.843,6.647-6.331V74.579C189.336,71.088,186.356,68.248,182.691,68.248z"/>
<path d="M149.996,0C67.157,0,0.001,67.161,0.001,149.997S67.157,300,149.996,300s150.003-67.163,150.003-150.003
S232.835,0,149.996,0z M208.354,224.021c0,11.458-9.29,20.749-20.749,20.749h-75.214c-11.458,0-20.749-9.29-20.749-20.749V75.323
c0-11.458,9.29-20.749,20.749-20.749h75.214c11.458,0,20.749,9.29,20.749,20.749V224.021z"/>
</symbol>

<symbol id="icon-cart" viewBox="0 0 512 512">
<path style="fill-rule:evenodd;clip-rule:evenodd;" d="M93.459,105.444l76.858,11.215l25.561,90.071l-90.643-2.172l-30.312-74.62  L55.675,116c-7.43,3.98-16.215,5.526-25.094,3.781c-20.448-4.02-33.891-23.984-29.87-44.439c4.02-20.448,23.985-33.892,44.439-29.87  c20.448,4.021,33.892,23.985,29.869,44.439c-0.124,0.633-0.264,1.258-0.419,1.877L93.459,105.444L93.459,105.444z M391.114,411.671  c19.533,0,35.368,15.835,35.368,35.368c0,19.533-15.835,35.368-35.368,35.368c-19.533,0-35.368-15.835-35.368-35.368  C355.746,427.506,371.581,411.671,391.114,411.671L391.114,411.671z M208.693,411.671c19.533,0,35.368,15.835,35.368,35.368  c0,19.533-15.835,35.368-35.368,35.368c-19.533,0-35.368-15.835-35.368-35.368C173.326,427.506,189.16,411.671,208.693,411.671  L208.693,411.671z M403.65,246.252c-59.825,0-108.329-48.504-108.329-108.329c0-59.825,48.504-108.329,108.329-108.329  c29.725,0,57.255,12.171,76.625,31.757l-80.225,80.225l-19.882-19.882c-6.005-6.005-15.74-6.005-21.745,0  c-6.005,6.005-6.005,15.74,0,21.745l30.754,30.754c6.005,6.005,15.74,6.005,21.745,0l87.954-87.954  c22.976,42.24,15.174,94.483-18.627,128.284C460.645,234.126,433.563,246.252,403.65,246.252L403.65,246.252z M183.753,341.771  l48.643-6.364l-27.759-97.815l-86.828-2.081l36.474,89.787c-2.652,3.034-4.91,6.487-6.719,10.316  c-13.776,29.163,7.834,62.247,39.894,62.247h240.971c8.493,0,15.377-6.885,15.377-15.377c0-8.493-6.885-15.377-15.377-15.377  H187.457c-4.916,0-8.852-2.102-11.439-6.224C171.207,353.218,175.696,343.654,183.753,341.771L183.753,341.771z M203.6,121.516  l61.17,8.926c-1.506,27.761,5.447,54.937,19.309,78.401l-56.077-1.344L203.6,121.516L203.6,121.516z M431.762,274.108  c-17.876,21.357-42.5,37.072-71.16,43.823l-8.392-50.865C377.399,277.133,404.94,279.697,431.762,274.108L431.762,274.108z   M330.285,322.598l-12.41-75.223c-2.965-2.314-5.825-4.742-8.575-7.276l-72.54-1.738l26.399,93.02L330.285,322.598z"/>
</symbol>


<symbol id="icon-shopper" viewBox="0 0 511.953 511.953">
<path style="fill-rule:evenodd;clip-rule:evenodd;" d="M511.714,476.59l-4.638-42.339H340.888l5.535,38.672   c0.982,6.885,0.151,14.794-2.134,21.328H496.95C506.34,494.251,513.353,485.752,511.714,476.59z"/>
<path style="fill-rule:evenodd;clip-rule:evenodd;" d="M474.375,135.669c-0.644-6.056-6.82-13.418-14.883-13.418h-65.414v55.534   c0,8.284-6.716,15-15,15c-8.284,0-15-6.716-15-15v-55.534H246.822v55.534c0,8.284-6.716,15-15,15c-8.284,0-15-6.716-15-15v-55.534   h-65.453c-8.071,0-14.653,6.375-14.986,14.365c-2.712,24.92-5.439,49.845-8.171,74.769l141.823-0.133   c11.693,0,22.383,4.523,30.428,11.929c7.944,7.312,13.254,17.459,14.346,28.854l21.784,152.216H503.79   C493.983,314.724,484.177,225.197,474.375,135.669z"/>
<path style="fill-rule:evenodd;clip-rule:evenodd;" d="M246.822,106.329c0-32.215,26.412-58.627,58.627-58.627   c32.214,0,58.628,26.414,58.628,58.627v15.923h30v-15.923c0-48.773-39.852-88.627-88.628-88.627   c-48.776,0-88.627,39.851-88.627,88.627v15.923h30V106.329z"/>
<path style="fill-rule:evenodd;clip-rule:evenodd;" d="M284.984,255.012c-0.63-7.704-7.082-13.76-14.949-13.76l-223.2,0.026   c-7.342-0.009-13.76,5.387-14.824,12.865L0.26,476.203c-1.739,9.973,5.485,18.048,14.69,18.048l287-0.026   c9.081-0.011,16.111-8.034,14.824-17.083L284.984,255.012z M158.45,367.68c-39.631,0-72.001-32.369-72.001-72.001   c0-8.284,6.716-15,15-15c8.284,0,15,6.716,15,15c0,23.07,18.931,42.001,42.001,42.001c23.07,0,42.001-18.931,42.001-42.001   c0-8.284,6.716-15,15-15c8.284,0,15,6.716,15,15C230.451,335.31,198.081,367.68,158.45,367.68z"/>
</symbol>

<symbol id="icon-www" viewBox="0 0 496 496">
<path d="m8 167.988281h480c4.417969 0 8-3.582031 8-8s-3.582031-8-8-8h-11.488281c-37.5625-90.507812-125.222657-150.125-223.199219-151.800781h-.296875c-.496094-.054688-.996094-.078125-1.496094-.070312-2.0625-.1562505-4.128906-.1562505-6.191406 0-.75-.0195318-1.496094.015624-2.238281.101562h-.105469c-.097656 0-.183594 0-.28125 0-97.976563 1.664062-185.640625 61.269531-223.214844 151.769531h-11.488281c-4.417969 0-8 3.582031-8 8s3.582031 8 8 8zm309.023438-91.824219c-20.261719 2.289063-40.632813 3.542969-61.023438 3.753907v-63.066407c22.65625 4.136719 44.152344 25.710938 61.023438 59.3125zm-77.023438-59.3125v63.066407c-20.382812-.210938-40.738281-1.464844-60.992188-3.753907 16.792969-33.34375 38.207032-54.871093 60.992188-59.3125zm0 79.066407v56.070312h-86.398438c4.171876-20.730469 10.300782-41.019531 18.300782-60.59375 22.597656 2.78125 45.332031 4.292969 68.097656 4.523438zm16 0c22.761719-.230469 45.488281-1.742188 68.078125-4.53125 8 19.582031 14.136719 39.871093 18.320313 60.601562h-86.398438zm84.335938-6.851563c11.046874-1.78125 21.464843-3.878906 31.097656-6.277344 15.84375 20.941407 28.191406 44.308594 36.566406 69.199219h-49.320312c-4.167969-21.492187-10.308594-42.554687-18.34375-62.921875zm-6.59375-15.109375c-7.621094-16.742187-17.722657-32.238281-29.964844-45.96875 21.386718 9.652344 40.535156 23.652344 56.222656 41.105469-8.238281 1.839844-17.015625 3.46875-26.257812 4.863281zm-171.46875 0c-9.261719-1.394531-18.015626-3.015625-26.273438-4.863281 15.710938-17.488281 34.890625-31.511719 56.320312-41.175781-12.289062 13.738281-22.417968 29.261719-30.046874 46.039062zm-6.609376 15.109375c-8.03125 20.367188-14.171874 41.429688-18.34375 62.921875h-49.320312c8.378906-24.890625 20.734375-48.261719 36.585938-69.199219 9.613281 2.398438 20.03125 4.503907 31.078124 6.277344zm303.390626 62.921875h-34.191407c-8.335937-26.398437-20.773437-51.320312-36.863281-73.847656 4.640625-1.472656 9.011719-3.023437 13.113281-4.65625 24.675781 21.75 44.429688 48.515625 57.941407 78.503906zm-72.4375-90.207031c-2.949219 1-6.027344 1.96875-9.234376 2.902344-6.867187-8.136719-14.355468-15.730469-22.398437-22.710938 11.066406 5.730469 21.644531 12.355469 31.632813 19.808594zm-268 2.902344c-3.203126-.933594-6.277344-1.902344-9.234376-2.902344 10.007813-7.453125 20.601563-14.082031 31.679688-19.816406-8.054688 6.984375-15.558594 14.578125-22.445312 22.71875zm-23.695313 8.800781c4.09375 1.632813 8.464844 3.183594 13.109375 4.65625-16.097656 22.527344-28.550781 47.449219-36.894531 73.847656h-34.191407c13.523438-29.992187 33.289063-56.753906 57.976563-78.503906zm0 0"/><path d="m488 327.988281h-480c-4.417969 0-8 3.582031-8 8s3.582031 8 8 8h11.488281c37.5625 90.507813 125.222657 150.125 223.199219 151.800781h.296875c.496094.058594.996094.082032 1.496094.070313h.800781.472656c.796875.050781 1.542969.058594 2.285156.058594 1.015626 0 1.945313 0 2.546876-.058594.800781.03125 1.601562-.007813 2.398437-.109375h.078125.28125c97.957031-1.683594 185.597656-61.28125 223.167969-151.761719h11.488281c4.417969 0 8-3.582031 8-8s-3.582031-8-8-8zm-309.023438 91.824219c20.261719-2.289062 40.632813-3.542969 61.023438-3.753906v63.066406c-22.65625-4.136719-44.152344-25.710938-61.023438-59.3125zm77.023438 59.3125v-63.066406c20.382812.210937 40.738281 1.464844 60.992188 3.753906-16.792969 33.34375-38.214844 54.871094-60.992188 59.3125zm0-79.066406v-56.070313h86.398438c-4.171876 20.730469-10.300782 41.019531-18.300782 60.59375-22.597656-2.78125-45.332031-4.292969-68.097656-4.523437zm-16 0c-22.761719.230468-45.488281 1.742187-68.078125 4.53125-8-19.582032-14.136719-39.871094-18.320313-60.601563h86.398438zm-84.335938 6.851562c-11.046874 1.78125-21.464843 3.878906-31.097656 6.277344-15.84375-20.941406-28.191406-44.308594-36.566406-69.199219h49.335938c4.164062 21.492188 10.296874 42.554688 18.328124 62.921875zm6.59375 15.109375c7.617188 16.753907 17.722657 32.261719 29.964844 46-21.390625-9.660156-40.539062-23.667969-56.222656-41.136719 8.238281-1.839843 17.015625-3.46875 26.257812-4.863281zm171.46875 0c9.253907 1.394531 18.015626 3.015625 26.28125 4.863281-15.710937 17.488282-34.890624 31.515626-56.320312 41.183594 12.28125-13.742187 22.410156-29.265625 30.039062-46.046875zm6.609376-15.109375c8.03125-20.367187 14.171874-41.429687 18.34375-62.921875h49.320312c-8.378906 24.890625-20.734375 48.261719-36.585938 69.199219-9.613281-2.398438-20.03125-4.503906-31.078124-6.277344zm-303.390626-62.921875h34.191407c8.335937 26.398438 20.773437 51.320313 36.863281 73.847657-4.640625 1.472656-9.011719 3.023437-13.113281 4.65625-24.675781-21.75-44.429688-48.515626-57.941407-78.503907zm72.4375 90.207031c2.949219-.996093 6.027344-1.964843 9.234376-2.902343 6.882812 8.136719 14.382812 15.730469 22.4375 22.710937-11.078126-5.730468-21.667969-12.355468-31.671876-19.808594zm268-2.902343c3.203126.9375 6.277344 1.90625 9.234376 2.902343-10.007813 7.453126-20.601563 14.082032-31.679688 19.816407 8.054688-6.984375 15.558594-14.578125 22.445312-22.71875zm23.695313-8.800781c-4.09375-1.632813-8.464844-3.183594-13.109375-4.65625 16.097656-22.527344 28.550781-47.449219 36.894531-73.847657h34.191407c-13.523438 29.992188-33.289063 56.753907-57.976563 78.503907zm0 0"/><path d="m288.335938 205.691406-18.199219 60.695313-14.9375-29.972657c-1.503907-2.523437-4.222657-4.070312-7.160157-4.070312-2.933593 0-5.65625 1.546875-7.160156 4.070312l-15.015625 29.972657-18.199219-60.671875c-1.269531-4.230469-5.726562-6.632813-9.960937-5.367188-4.230469 1.269532-6.636719 5.726563-5.367187 9.960938l24 80c.941406 3.140625 3.707031 5.390625 6.976562 5.671875 3.277344.316406 6.402344-1.433594 7.847656-4.390625l16.839844-33.714844 16.800781 33.6875c1.359375 2.726562 4.152344 4.441406 7.199219 4.425781.230469.011719.457031.011719.6875 0 3.269531-.28125 6.035156-2.53125 6.976562-5.671875l24-80c1.269532-4.234375-1.136718-8.691406-5.367187-9.960937-4.234375-1.265625-8.691406 1.136719-9.960937 5.367187zm0 0"/><path d="m416.335938 205.691406-18.199219 60.695313-14.9375-29.972657c-1.503907-2.523437-4.222657-4.070312-7.160157-4.070312-2.933593 0-5.65625 1.546875-7.160156 4.070312l-15.015625 29.972657-18.199219-60.671875c-1.269531-4.230469-5.726562-6.632813-9.960937-5.367188-4.230469 1.269532-6.636719 5.726563-5.367187 9.960938l24 80c.941406 3.140625 3.707031 5.390625 6.976562 5.671875 3.273438.3125 6.402344-1.4375 7.847656-4.390625l16.839844-33.714844 16.800781 33.6875c1.359375 2.726562 4.152344 4.441406 7.199219 4.425781.230469.011719.457031.011719.6875 0 3.269531-.28125 6.035156-2.53125 6.976562-5.671875l24-80c1.269532-4.234375-1.136718-8.691406-5.367187-9.960937-4.234375-1.265625-8.691406 1.136719-9.960937 5.367187zm0 0"/><path d="m160.335938 205.691406-18.199219 60.695313-14.9375-29.972657c-1.503907-2.523437-4.222657-4.070312-7.160157-4.070312-2.933593 0-5.65625 1.546875-7.160156 4.070312l-15.015625 29.972657-18.199219-60.671875c-1.269531-4.230469-5.726562-6.632813-9.960937-5.367188-4.230469 1.269532-6.636719 5.726563-5.367187 9.960938l24 80c.941406 3.140625 3.707031 5.390625 6.976562 5.671875 3.277344.320312 6.40625-1.433594 7.847656-4.390625l16.839844-33.714844 16.839844 33.6875c1.355468 2.714844 4.128906 4.425781 7.160156 4.425781.230469.011719.457031.011719.6875 0 3.269531-.28125 6.035156-2.53125 6.976562-5.671875l24-80c1.269532-4.234375-1.136718-8.691406-5.367187-9.960937-4.234375-1.265625-8.691406 1.136719-9.960937 5.367187zm0 0"/>
</symbol>

<symbol id="icon-mail" viewBox="0 0 452.84 452.84">
<path d="m449.483,190.4l.001-.001-57.824-38.335v-128.134c0-4.142-3.358-7.5-7.5-7.5h-315.49c-4.142,0-7.5,3.358-7.5,7.5v128.143l-57.814,38.326 .001,.002c-2.022,1.343-3.357,3.639-3.357,6.249v232.26c0,4.142 3.358,7.5 7.5,7.5h437.84c4.142,0 7.5-3.358 7.5-7.5v-232.26c0-2.61-1.335-4.906-3.357-6.25zm-388.313,26.229l-23.525-12.479h23.525v12.479zm-46.17-7.511l172.475,91.49-172.475,114.327v-205.817zm211.417,83.671l194.037,128.621h-388.073l194.036-128.621zm38.945,7.82l172.477-91.491v205.821l-172.477-114.33zm126.298-96.459h23.536l-23.536,12.484v-12.484zm28.794-15h-28.794v-19.09l28.794,19.09zm-43.794-157.72v193.161l-125.527,66.586-20.573-13.637c-2.511-1.665-5.776-1.665-8.287,0l-20.57,13.635-125.533-66.589v-193.156h300.49zm-315.49,157.72h-28.782l28.782-19.08v19.08z"/>
<path d="m226.415,213.671h59.754c4.142,0 7.5-3.358 7.5-7.5s-3.358-7.5-7.5-7.5h-59.754c-28.813,0-52.254-23.441-52.254-52.254v-2.213c0-28.813 23.441-52.254 52.254-52.254s52.254,23.441 52.254,52.254v5.533c0,6.237-5.074,11.312-11.312,11.312s-11.312-5.074-11.312-11.312v-10.512c0-17.864-14.533-32.398-32.397-32.398s-32.397,14.533-32.397,32.398c0,17.864 14.533,32.397 32.397,32.397 8.169,0 15.636-3.045 21.34-8.052 4.644,7.483 12.932,12.478 22.369,12.478 14.508,0 26.312-11.803 26.312-26.312v-5.533c0-37.084-30.17-67.254-67.254-67.254s-67.254,30.17-67.254,67.254v2.213c5.68434e-14,37.085 30.17,67.255 67.254,67.255zm-2.767-57.049c-9.593,0-17.397-7.804-17.397-17.397s7.805-17.398 17.397-17.398 17.397,7.805 17.397,17.398-7.804,17.397-17.397,17.397z"/>
</symbol>

<symbol id="icon-hours" viewBox="0 0 299.995 299.995">
<path d="M149.995,0C67.156,0,0,67.158,0,149.995s67.156,150,149.995,150s150-67.163,150-150S232.834,0,149.995,0z
M214.842,178.524H151.25c-0.215,0-0.415-0.052-0.628-0.06c-0.213,0.01-0.412,0.06-0.628,0.06
c-5.729,0-10.374-4.645-10.374-10.374V62.249c0-5.729,4.645-10.374,10.374-10.374s10.374,4.645,10.374,10.374v95.527h54.47
c5.729,0,10.374,4.645,10.374,10.374C225.212,173.879,220.571,178.524,214.842,178.524z"/>
</symbol>


<symbol id="icon-clicker" viewBox="0 0 512.051 512.051">
<path d="m.013 368.685c.264 6.235 4.361 11.655 10.288 13.61l89.822 29.632 29.632 89.822c1.955 5.927 7.375 10.023 13.61 10.288 6.338.261 12.019-3.446 14.432-9.1l96-225c5.293-12.407-7.277-24.975-19.684-19.684l-225 96c-5.739 2.45-9.363 8.197-9.1 14.432zm57.42-2.431 154.122-65.759-65.759 154.122-19.552-59.266c-1.489-4.515-5.031-8.056-9.545-9.545z"/><path d="m256 385.05c71.131 0 129-57.869 129-129s-57.869-129-129-129-129 57.869-129 129c0 8.284-6.716 15-15 15s-15-6.716-15-15c0-87.673 71.327-159 159-159s159 71.327 159 159-71.327 159-159 159c-8.284 0-15-6.716-15-15s6.716-15 15-15z"/><path d="m256 482.05c124.617 0 226-101.383 226-226s-101.383-226-226-226-226 101.383-226 226c0 8.284-6.716 15-15 15s-15-6.716-15-15c0-68.113 26.702-132.327 75.188-180.812 100.3-100.301 261.29-100.335 361.624 0 100.301 100.3 100.335 261.29 0 361.624-48.485 48.486-112.699 75.188-180.812 75.188-8.284 0-15-6.716-15-15s6.716-15 15-15z"/>
</symbol>



<symbol id="icon-phone" viewBox="0 0 60 60">
<path d="M42.595,0H17.405C14.977,0,13,1.977,13,4.405v51.189C13,58.023,14.977,60,17.405,60h25.189C45.023,60,47,58.023,47,55.595
V4.405C47,1.977,45.023,0,42.595,0z M15,8h30v38H15V8z M17.405,2h25.189C43.921,2,45,3.079,45,4.405V6H15V4.405
C15,3.079,16.079,2,17.405,2z M42.595,58H17.405C16.079,58,15,56.921,15,55.595V48h30v7.595C45,56.921,43.921,58,42.595,58z"/>
<path d="M30,49c-2.206,0-4,1.794-4,4s1.794,4,4,4s4-1.794,4-4S32.206,49,30,49z M30,55c-1.103,0-2-0.897-2-2s0.897-2,2-2
s2,0.897,2,2S31.103,55,30,55z"/>
<path d="M26,5h4c0.553,0,1-0.447,1-1s-0.447-1-1-1h-4c-0.553,0-1,0.447-1,1S25.447,5,26,5z"/>
<path d="M33,5h1c0.553,0,1-0.447,1-1s-0.447-1-1-1h-1c-0.553,0-1,0.447-1,1S32.447,5,33,5z"/>
<path d="M56.612,4.569c-0.391-0.391-1.023-0.391-1.414,0s-0.391,1.023,0,1.414c3.736,3.736,3.736,9.815,0,13.552
c-0.391,0.391-0.391,1.023,0,1.414c0.195,0.195,0.451,0.293,0.707,0.293s0.512-0.098,0.707-0.293
C61.128,16.434,61.128,9.085,56.612,4.569z"/>
<path d="M52.401,6.845c-0.391-0.391-1.023-0.391-1.414,0s-0.391,1.023,0,1.414c1.237,1.237,1.918,2.885,1.918,4.639
s-0.681,3.401-1.918,4.638c-0.391,0.391-0.391,1.023,0,1.414c0.195,0.195,0.451,0.293,0.707,0.293s0.512-0.098,0.707-0.293
c1.615-1.614,2.504-3.764,2.504-6.052S54.017,8.459,52.401,6.845z"/>
<path d="M4.802,5.983c0.391-0.391,0.391-1.023,0-1.414s-1.023-0.391-1.414,0c-4.516,4.516-4.516,11.864,0,16.38
c0.195,0.195,0.451,0.293,0.707,0.293s0.512-0.098,0.707-0.293c0.391-0.391,0.391-1.023,0-1.414
C1.065,15.799,1.065,9.72,4.802,5.983z"/>
<path d="M9.013,6.569c-0.391-0.391-1.023-0.391-1.414,0c-1.615,1.614-2.504,3.764-2.504,6.052s0.889,4.438,2.504,6.053
c0.195,0.195,0.451,0.293,0.707,0.293s0.512-0.098,0.707-0.293c0.391-0.391,0.391-1.023,0-1.414
c-1.237-1.237-1.918-2.885-1.918-4.639S7.775,9.22,9.013,7.983C9.403,7.593,9.403,6.96,9.013,6.569z"/>
</symbol>

<symbol id="icon-contacts" viewBox="0 0 511.874 511.874">
<path d="M490.114,12.813H132.568c-12.012,0.014-21.746,9.748-21.76,21.76v98.62l-16.35-24.525
c-7.484-11.289-22.535-14.676-34.133-7.68l-33.638,20.224c-11.016,6.464-19.097,16.946-22.545,29.244
c-12.271,44.681-3.166,121.66,109.824,234.667C203.821,474.885,270.816,499.06,316.99,499.06
c10.69,0.049,21.339-1.34,31.659-4.13c12.293-3.448,22.775-11.518,29.252-22.519l20.198-33.673
c6.968-11.589,3.584-26.609-7.68-34.091l-80.546-53.692c-11.049-7.308-25.859-4.905-34.031,5.521l-23.45,30.148
c-2.451,3.226-6.897,4.166-10.445,2.21l-4.463-2.458c-14.686-8.004-32.964-17.971-69.879-54.886
c-3.994-3.994-7.612-7.731-11.008-11.307h333.517c11.982,0.009,21.713-9.676,21.76-21.658V34.573
C511.86,22.561,502.126,12.827,490.114,12.813z M229.318,401.362l4.335,2.381c10.897,6.093,24.614,3.266,32.213-6.639
l23.45-30.148c2.666-3.396,7.49-4.179,11.093-1.801l80.546,53.692c3.659,2.439,4.759,7.321,2.5,11.093l-20.198,33.673
c-4.218,7.233-11.071,12.553-19.123,14.848c-40.337,11.093-110.933,1.707-218.078-105.446S9.56,195.273,20.627,154.97
c2.293-8.051,7.61-14.903,14.839-19.123l33.673-20.207c3.773-2.254,8.652-1.155,11.093,2.5l53.717,80.546
c2.382,3.602,1.599,8.43-1.801,11.093l-30.157,23.458c-9.903,7.597-12.731,21.311-6.639,32.205l2.389,4.335
c8.533,15.65,19.14,35.123,57.805,73.779C194.212,382.213,213.677,392.828,229.318,401.362z M494.808,298.526
c-0.028,2.567-2.127,4.627-4.693,4.608H141.203c-11.083-12.674-20.64-26.604-28.476-41.506l-2.458-4.48
c-1.96-3.54-1.022-7.982,2.202-10.428l30.157-23.458c10.43-8.17,12.833-22.982,5.521-34.031l-20.275-30.43V34.573
c-0.014-1.249,0.476-2.451,1.359-3.334c0.883-0.883,2.085-1.373,3.334-1.359h357.547c1.249-0.014,2.451,0.476,3.334,1.359
c0.883,0.883,1.373,2.085,1.359,3.334V298.526z"/>
<path d="M460.725,52.323l-142.618,108.16c-4.035,2.932-9.499,2.932-13.534,0L162.008,52.323
c-3.756-2.849-9.111-2.113-11.959,1.643c-2.849,3.756-2.113,9.111,1.643,11.959l142.583,108.151
c10.144,7.494,23.989,7.494,34.133,0L471.034,65.925c1.805-1.368,2.992-3.398,3.299-5.642c0.307-2.244-0.29-4.518-1.661-6.321
C469.824,50.213,464.478,49.48,460.725,52.323z"/>
<path d="M238.517,174.793l-87.415,93.611c-3.214,3.447-3.025,8.848,0.422,12.062c3.447,3.214,8.848,3.025,12.062-0.422
l87.416-93.653c2.888-3.484,2.553-8.617-0.762-11.698C246.924,171.612,241.78,171.656,238.517,174.793z"/>
<path d="M384.728,174.793c-3.214-3.447-8.614-3.637-12.062-0.422c-3.447,3.214-3.637,8.614-0.422,12.062l87.39,93.611
c3.214,3.447,8.614,3.637,12.062,0.422c3.447-3.214,3.637-8.614,0.422-12.062L384.728,174.793z"/>
</symbol>

<symbol id="icon-webdesign" viewBox="0 0 64 64">
<path d="M59,14H48V3a1,1,0,0,0-1-1H17a1,1,0,0,0-1,1V14H5a3.009,3.009,0,0,0-3,3V49a3.009,3.009,0,0,0,3,3H24.82l-.67,4H23a1.014,1.014,0,0,0-.8.4l-3,4A1,1,0,0,0,20,62H44a1,1,0,0,0,.8-1.6l-3-4A1.014,1.014,0,0,0,41,56H39.85l-.67-4H59a3.009,3.009,0,0,0,3-3V17A3.009,3.009,0,0,0,59,14ZM18,4H46V24H18ZM40.5,58,42,60H22l1.5-2ZM26.18,56l.67-4h10.3l.67,4ZM60,49a1,1,0,0,1-1,1H5a1,1,0,0,1-1-1V46H60Zm0-5H4V17a1,1,0,0,1,1-1H16v9a1,1,0,0,0,1,1H47a1,1,0,0,0,1-1V16H59a1,1,0,0,1,1,1Z"/><path d="M57,28H45a1,1,0,0,0-1,1v1H36V29a1,1,0,0,0-1-1H29a1,1,0,0,0-1,1v1H20V29a1,1,0,0,0-1-1H7a1,1,0,0,0-1,1v4a1,1,0,0,0,1,1H19a1,1,0,0,0,1-1V32h8v1a1,1,0,0,0,1,1h2v2H29a1,1,0,0,0-1,1v4a1,1,0,0,0,1,1h6a1,1,0,0,0,1-1V37a1,1,0,0,0-1-1H33V34h2a1,1,0,0,0,1-1V32h8v1a1,1,0,0,0,1,1H57a1,1,0,0,0,1-1V29A1,1,0,0,0,57,28ZM18,32H8V30H18Zm16,6v2H30V38Zm0-6H30V30h4Zm22,0H46V30H56Z"/><path d="M26.293,7.293l-6,6a1,1,0,0,0,0,1.414l6,6,1.414-1.414L22.414,14l5.293-5.293Z"/><path d="M37.707,7.293,36.293,8.707,41.586,14l-5.293,5.293,1.414,1.414,6-6a1,1,0,0,0,0-1.414Z"/><rect x="22.513" y="13" width="18.974" height="1.999" transform="translate(8.591 39.923) rotate(-71.547)"/>
</symbol>

<symbol id="icon-advertising" viewBox="0 0 64 64">
<path d="m11 47h8v2h-8z"/><path d="m7 47h2v2h-2z"/><path d="m57.697 1-.252.168c-5.722 3.815-12.383 5.832-19.261 5.832h-.184-32c-2.757 0-5 2.243-5 5v36c0 2.757 2.243 5 5 5h14.613l-1.333 4h-1.28c-2.757 0-5 2.243-5 5v1h32v-1c0-2.757-2.243-5-5-5h-1.28l-1.333-4h14.613c2.757 0 5-2.243 5-5v-21.428c.172.1.344.208.515.302l.226.126h5.259v-26zm-9.697 20c.552 0 1 .449 1 1s-.448 1-1 1h-1-7v2h7c.552 0 1 .449 1 1s-.448 1-1 1h-1-6v2h6c.552 0 1 .449 1 1s-.448 1-1 1h-1-5v2h5c.552 0 1 .448 1 1s-.448 1-1 1h-14.515c-1.336 0-2.592-.521-3.536-1.465l-1.535-1.535h-2.414v-12h2.333l2.668-2c.858-.645 1.924-1 2.999-1h.685c1.126 2.361 3.53 4 6.315 4zm-16.92-6h-.08c-1.506 0-2.997.498-4.199 1.4l-2.134 1.6h-1.667v-3h-8v22h8v-3h1.586l.949.949c1.322 1.322 3.08 2.051 4.95 2.051h14.515c1.654 0 3-1.346 3-3 0-.537-.153-1.034-.401-1.471.839-.532 1.401-1.464 1.401-2.529 0-.537-.153-1.034-.401-1.471.839-.532 1.401-1.464 1.401-2.529 0-.537-.153-1.035-.402-1.472.562-.356 1.002-.888 1.229-1.524.058.024.115.056.173.082v19.914h-44v-30h24.08c-.047.328-.08.66-.08 1s.033.672.08 1zm-10.08 2v18h-4v-18zm29.766 3.836c-.456-1.078-1.524-1.836-2.766-1.836h-7v-10.112c5.663-.432 11.114-2.181 16-5.102v20.456c-.298-.185-.597-.373-.906-.568-1.71-1.08-3.474-2.193-5.328-2.838zm-12.582-11.836h.816v10h-1c-2.757 0-5-2.243-5-5s2.243-5 5-5zm4.645 52h-27.658c.413-1.164 1.525-2 2.829-2h22c1.304 0 2.416.836 2.829 2zm-6.216-4h-15.226l1.333-4h12.56zm15.387-6h-46c-1.654 0-3-1.346-3-3v-36c0-1.654 1.346-3 3-3h27.111c-.587.574-1.068 1.251-1.425 2h-24.686c-1.103 0-2 .897-2 2v30c0 1.103.897 2 2 2h44c1.103 0 2-.897 2-2v-18.879c.672.392 1.34.812 2 1.229v22.65c0 1.654-1.346 3-3 3zm9-26h-2v-22h2z"/><path d="m52.627 8.21.746 1.855c.691-.278 1.375-.575 2.051-.892l-.848-1.812c-.642.303-1.293.585-1.949.849z"/><path d="m42.88 10.717.24 1.985c2.791-.339 5.551-.969 8.203-1.875l-.646-1.893c-2.521.861-5.145 1.461-7.797 1.783z"/><path d="m9 25h4v2h-4z"/><path d="m9 29h4v2h-4z"/><path d="m9 33h4v2h-4z"/><path d="m9 37h4v2h-4z"/><path d="m39 39h2v2h-2z"/><path d="m43 39h2v2h-2z"/><path d="m47 39h2v2h-2z"/>
</symbol>

<symbol id="icon-logomaker" viewBox="0 -2 512 511">
<path d="m496 .5v167.054688l-16-8v-159.054688h-16v160l-8 6-8-6v-160h-16v159.054688l-16 8v-167.054688h-16v182.320312l56 88.664063 56-88.664063v-182.320312zm-40 241.015625-15.800781-25.015625h31.601562zm25.902344-41.015625h-51.804688l-10.609375-16.800781 19.710938-9.832031 16.800781 12.632812 16.800781-12.632812 19.710938 9.832031zm0 0"/><path d="m225.753906 176.5-28 112h116.492188l-28-112zm-7.507812 96 20-80h35.507812l20 80zm0 0"/><path d="m312 103.242188v-54.742188h32v-16h-32v-32h-16v32h-80v-32h-16v32h-32v16h32v54.742188l-23.761719 73.257812h-112.238281v-32h-16v32h-48v16h48v80h-48v16h48v32h16v-32h75.910156l-51.910156 160h-40v16h34.832031l-12.167969 37.527344 15.199219 4.945312 13.792969-42.472656h49.734375l-10.796875 37.800781 15.390625 4.398438 12.054687-42.199219h41.960938v-16h-37.390625l27.421875-96h115.9375l27.421875 96h-37.390625v16h41.960938l12.054687 42.199219 15.390625-4.398438-10.796875-37.800781h49.734375l13.777344 42.472656 15.199218-4.945312-12.152343-37.527344h34.832031v-16h-40zm-96-54.742188h80v48h-80zm-152 224v-80h107.046875l-25.941406 80zm89.960938 176h-49.121094l12.976562-40h47.574219zm188.070312-56-16-56h-140.0625l-16 56h-46.960938l90.808594-280h84.367188l90.808594 280zm16 56-11.429688-40h47.574219l13.023438 40zm0 0"/>
</symbol>

<symbol id="icon-contact" viewBox="0 0 455 455">
<polygon points="55,98.788 19.723,98.788 19.723,128.788 55,128.788 55,212.5 15,212.5 15,242.5 55,242.5 55,326.212 15,326.212 15,356.212 55,356.212 55,455 125,455 125,0 55,0 "/><path d="M155,0v455h285V0H155z M297.5,135.862c24.377,0,44.138,19.761,44.138,44.138s-19.761,44.138-44.138,44.138 S253.362,204.377,253.362,180S273.123,135.862,297.5,135.862z M217.5,319.138c0-44.183,35.817-80,80-80s80,35.817,80,80H217.5z"/></symbol>


<symbol id="icon-tick" viewBox="0 0 367.805 367.805">
<path style="fill:#3BB54A;" d="M183.903,0.001c101.566,0,183.902,82.336,183.902,183.902s-82.336,183.902-183.902,183.902
S0.001,285.469,0.001,183.903l0,0C-0.288,82.625,81.579,0.29,182.856,0.001C183.205,0,183.554,0,183.903,0.001z"/>
<polygon style="fill:#D4E1F4;" points="285.78,133.225 155.168,263.837 82.025,191.217 111.805,161.96 155.168,204.801 
256.001,103.968 	"/>
</symbol>

<symbol id="icon-quotes" viewBox="0 0 32 32" ><path d="M25 20a7 7 0 1 1 7-7l.031 1c0 7.732-6.268 14-14 14v-4a9.934 9.934 0 0 0 7.071-2.929c.364-.364.695-.75.995-1.157A7.081 7.081 0 0 1 25 20zM7 20a7 7 0 1 1 7-7l.031 1c0 7.732-6.268 14-14 14v-4a9.934 9.934 0 0 0 7.071-2.929c.364-.364.695-.75.995-1.157A7.081 7.081 0 0 1 7 20z"></path></symbol>

<symbol id="icon-pattern" viewBox="0 0 451.112 451.112">
<path d="m271.125 18.875c25.167 25.167 25.167 65.971 0 91.138s-65.971 25.167-91.138 0-25.167-65.971 0-91.138 65.971-25.167 91.138 0"/><path d="m432.235 18.875c25.167 25.167 25.167 65.971 0 91.138s-65.971 25.167-91.138 0-25.167-65.971 0-91.138 65.971-25.167 91.138 0"/><path d="m451.112 225.556c0-35.526-28.902-64.444-64.444-64.444s-64.444 28.918-64.444 64.444c0 29.933 20.615 54.951 48.333 62.157v36.797c-5.849 1.52-11.336 3.841-16.42 6.844l-73.269-73.269c5.66-9.586 9.133-20.615 9.133-32.529 0-35.526-28.902-64.444-64.444-64.444-29.945 0-54.951 20.623-62.155 48.333h-36.802c-5.857-22.532-23.508-40.187-46.044-46.046v-36.797c27.719-7.206 48.333-32.224 48.333-62.157 0-35.527-28.903-64.445-64.445-64.445s-64.444 28.918-64.444 64.445c0 29.933 20.615 54.951 48.333 62.157v36.797c-27.718 7.206-48.333 32.224-48.333 62.157 0 35.526 28.902 64.444 64.444 64.444 29.945 0 54.951-20.623 62.155-48.333h36.801c7.204 27.711 32.21 48.333 62.155 48.333 11.916 0 22.947-3.471 32.531-9.131l73.269 73.269c-5.66 9.586-9.133 20.615-9.133 32.529 0 35.526 28.902 64.444 64.444 64.444s64.444-28.918 64.444-64.444c0-29.933-20.615-54.951-48.333-62.157v-36.797c27.72-7.206 48.334-32.224 48.335-62.157z"/><path d="m110.014 341.097c25.167 25.167 25.167 65.971 0 91.138s-65.971 25.167-91.138 0-25.167-65.971 0-91.138c25.167-25.168 65.971-25.168 91.138 0"/><path d="m271.125 341.097c25.167 25.167 25.167 65.971 0 91.138s-65.971 25.167-91.138 0-25.167-65.971 0-91.138c25.167-25.168 65.971-25.168 91.138 0"/>
</symbol>

<symbol id="icon-coding-client" viewBox="0 0 496 496">
<path d="m248 0c-42.625 0-84.625 11.097656-121.664062 32h-94.335938v94.335938c-20.902344 37.03125-32 79.03125-32 121.664062 0 36.832031 7.96875 72.230469 23.535156 105.335938-4.816406 11.96875-7.535156 24.992187-7.535156 38.664062 0 57.34375 46.65625 104 104 104 18.054688 0 35.039062-4.640625 49.855469-12.769531 25.25 8.394531 51.496093 12.769531 78.144531 12.769531 136.753906 0 248-111.257812 248-248s-111.246094-248-248-248zm232 248c0 29.808594-5.710938 58.289062-16 84.496094v-124.496094h-80v-147.785156c58.113281 42.199218 96 110.632812 96 187.785156zm-432-136h320v96h-208v-80h-96v112h48v16h-64zm64 96v16h-32v-80h64v64zm16 16h320v48h-320zm120-208c29.808594 0 58.289062 5.710938 84.496094 16h-168.839844c26.785156-10.464844 55.390625-16 84.34375-16zm117.367188 32c.871093.511719 1.769531.992188 2.632812 1.511719v46.488281h-320v-48zm-349.367188 200c0-28.953125 5.535156-57.566406 16-84.351562v108.351562h80v16.40625c-33.03125 2.539062-61.777344 20.503906-78.992188 46.761719-11.253906-27.65625-17.007812-56.894531-17.007812-87.167969zm16 144c0-48.519531 39.480469-88 88-88s88 39.480469 88 88-39.480469 88-88 88-88-39.480469-88-88zm154.742188 79.648438c8.066406-6.769532 15.042968-14.761719 20.753906-23.648438h157.871094c-34.457032 20.304688-74.558594 32-117.367188 32-20.785156 0-41.304688-2.886719-61.257812-8.351562zm202.328124-39.648438h-173.09375c5.152344-12.320312 8.023438-25.832031 8.023438-40 0-54.648438-42.390625-99.480469-96-103.59375v-.40625h320v77.367188c-15.214844 25.824218-35.273438 48.449218-58.929688 66.632812zm0 0"/><path d="m96.234375 454.066406 32.03125-127.992187 15.515625 3.882812-32.035156 127.992188zm0 0"/><path d="m158.246094 347-12.492188 10 28.007813 35-28.007813 35 12.492188 10 35.992187-45zm0 0"/><path d="m81.753906 347-35.992187 45 35.992187 45 12.492188-10-28.007813-35 28.007813-35zm0 0"/><path d="m64 64h16v16h-16zm0 0"/><path d="m96 64h16v16h-16zm0 0"/><path d="m128 64h16v16h-16zm0 0"/><path d="m144 240h16v16h-16zm0 0"/><path d="m176 240h16v16h-16zm0 0"/><path d="m208 240h16v16h-16zm0 0"/><path d="m176 128h16v16h-16zm0 0"/><path d="m208 128h144v16h-144zm0 0"/><path d="m176 160h16v16h-16zm0 0"/><path d="m208 160h144v16h-144zm0 0"/><path d="m368 304c-30.871094 0-56 25.121094-56 56s25.128906 56 56 56 56-25.121094 56-56-25.128906-56-56-56zm0 96c-22.054688 0-40-17.945312-40-40s17.945312-40 40-40 40 17.945312 40 40-17.945312 40-40 40zm0 0"/><path d="m240 400h56v16h-56zm0 0"/><path d="m240 368h56v16h-56zm0 0"/><path d="m240 336h56v16h-56zm0 0"/><path d="m208 304h88v16h-88zm0 0"/>
</symbol>

<symbol id="icon-coding-mobile" viewBox="0 0 512 512">
<g><path d="m360 8h-208a32.042 32.042 0 0 0 -32 32v432a32.042 32.042 0 0 0 32 32h208a32.042 32.042 0 0 0 32-32v-432a32.042 32.042 0 0 0 -32-32zm-66.56 16-4.5 16h-66.69l-4-16zm82.56 448a16.021 16.021 0 0 1 -16 16h-208a16.021 16.021 0 0 1 -16-16v-432a16.021 16.021 0 0 1 16-16h49.75l6.49 25.94a8 8 0 0 0 7.76 6.06h79a8 8 0 0 0 7.7-5.83l7.36-26.17h49.94a16.021 16.021 0 0 1 16 16z"/><path d="m216 456h-56a8 8 0 0 0 0 16h56a8 8 0 0 0 0-16z"/><path d="m248 456h-8a8 8 0 0 0 0 16h8a8 8 0 0 0 0-16z"/><path d="m284.116 209.14a8 8 0 0 0 -10.976 2.744l-48 80a8 8 0 1 0 13.72 8.232l48-80a8 8 0 0 0 -2.744-10.976z"/><path d="m310.247 211a8 8 0 0 0 -12.494 10l28 35-28 35a8 8 0 0 0 12.494 10l32-40a8 8 0 0 0 0-10z"/><path d="m201.753 301a8 8 0 1 0 12.494-10l-28-35 28-35a8 8 0 1 0 -12.494-10l-32 40a8 8 0 0 0 0 10z"/></g>
</symbol>

<symbol id="icon-integration" viewBox="0 0 512 512">
<path d="m357.019 320.662-18.354-18.355c3.06-5.457 5.56-11.187 7.476-17.129h26.952c4.143 0 7.5-3.357 7.5-7.5v-43.356c0-4.143-3.357-7.5-7.5-7.5h-26.953c-1.916-5.941-4.416-11.671-7.476-17.128l18.354-18.355c2.929-2.929 2.929-7.677 0-10.605l-28.186-28.188c-1.407-1.406-3.314-2.196-5.304-2.196s-3.896.79-5.304 2.196l-19.064 19.065c-4.53-2.324-9.234-4.275-14.069-5.836v-26.953c0-4.143-3.357-7.5-7.5-7.5h-39.861c-4.143 0-7.5 3.357-7.5 7.5v25.952c-6.01 1.695-11.827 3.981-17.392 6.837l-19.064-19.065c-1.407-1.406-3.314-2.196-5.304-2.196s-3.896.79-5.304 2.196l-28.186 28.188c-2.929 2.929-2.929 7.677 0 10.605l18.354 18.355c-3.06 5.457-5.56 11.187-7.476 17.128h-26.952c-4.143 0-7.5 3.357-7.5 7.5v43.356c0 4.143 3.357 7.5 7.5 7.5h26.952c1.916 5.942 4.416 11.672 7.476 17.129l-18.354 18.355c-2.929 2.929-2.929 7.677 0 10.606l28.186 28.186c2.929 2.927 7.678 2.929 10.606 0l19.065-19.064c5.564 2.855 11.382 5.142 17.392 6.837v25.952c0 4.143 3.357 7.5 7.5 7.5h39.861c4.143 0 7.5-3.357 7.5-7.5v-26.953c4.835-1.561 9.539-3.512 14.069-5.836l19.065 19.064c2.928 2.928 7.677 2.928 10.606 0l28.186-28.186c2.931-2.929 2.931-7.677.003-10.606zm-33.49 22.882-17.752-17.751c-2.425-2.424-6.186-2.898-9.134-1.144-6.537 3.884-13.57 6.801-20.903 8.67-3.323.847-5.648 3.839-5.648 7.268v25.092h-24.862v-24.319c0-3.54-2.475-6.598-5.937-7.335-8.443-1.8-16.497-4.954-23.938-9.375-2.948-1.754-6.71-1.281-9.134 1.144l-17.752 17.751-17.579-17.579 17.2-17.201c2.502-2.502 2.915-6.413.989-9.383-4.713-7.27-8.184-15.195-10.313-23.555-.847-3.323-3.839-5.648-7.268-5.648h-25.092v-28.356h25.094c3.429 0 6.421-2.325 7.268-5.648 2.131-8.359 5.601-16.284 10.313-23.554 1.926-2.97 1.513-6.881-.989-9.383l-17.2-17.201 17.579-17.58 17.751 17.752c2.425 2.424 6.185 2.896 9.135 1.144 7.44-4.421 15.494-7.575 23.938-9.375 3.462-.737 5.937-3.795 5.937-7.335v-24.319h24.861v25.092c0 3.429 2.325 6.421 5.648 7.268 7.333 1.869 14.366 4.786 20.903 8.67 2.946 1.753 6.708 1.28 9.135-1.144l17.751-17.752 17.579 17.58-17.2 17.201c-2.502 2.502-2.915 6.413-.989 9.383 4.713 7.27 8.183 15.194 10.313 23.554.847 3.323 3.839 5.648 7.268 5.648h25.092v28.356h-25.093c-3.429 0-6.421 2.325-7.268 5.648-2.13 8.359-5.601 16.285-10.313 23.555-1.926 2.97-1.513 6.881.989 9.383l17.2 17.201z"/><path d="m256 218.195c-1.924 0-3.855.146-5.739.434-4.095.625-6.907 4.451-6.282 8.546.625 4.096 4.454 6.907 8.546 6.282 1.138-.174 2.307-.262 3.476-.262 12.574 0 22.805 10.23 22.805 22.805s-10.23 22.805-22.805 22.805-22.805-10.23-22.805-22.805c0-1.176.089-2.354.266-3.499.629-4.094-2.18-7.923-6.273-8.553-4.093-.633-7.923 2.178-8.553 6.273-.292 1.897-.439 3.842-.439 5.778 0 20.846 16.959 37.805 37.805 37.805s37.805-16.959 37.805-37.805-16.961-37.804-37.807-37.804z"/><path d="m443.891 45.457c-12.49 0-22.652 10.162-22.652 22.652s10.162 22.652 22.652 22.652 22.652-10.162 22.652-22.652-10.162-22.652-22.652-22.652zm0 30.305c-4.22 0-7.652-3.433-7.652-7.652s3.433-7.652 7.652-7.652 7.652 3.433 7.652 7.652-3.433 7.652-7.652 7.652z"/><path d="m504.5 45.457h-12.749c-5.242-11.096-14.112-19.966-25.208-25.208v-12.749c0-4.143-3.357-7.5-7.5-7.5h-30.305c-4.143 0-7.5 3.357-7.5 7.5v12.748c-11.097 5.243-19.966 14.112-25.209 25.209h-12.749c-4.143 0-7.5 3.357-7.5 7.5v30.305c0 4.143 3.357 7.5 7.5 7.5h12.748c5.243 11.097 14.113 19.967 25.21 25.21v12.748c0 4.143 3.357 7.5 7.5 7.5h30.305c4.143 0 7.5-3.357 7.5-7.5v-12.749c11.097-5.243 19.966-14.112 25.209-25.209h12.748c4.143 0 7.5-3.357 7.5-7.5v-30.305c0-4.143-3.357-7.5-7.5-7.5zm-7.5 30.305h-10.259c-3.176 0-6.007 2-7.068 4.993-3.793 10.694-12.442 19.345-23.137 23.138-2.993 1.062-4.993 3.893-4.993 7.068v10.259h-15.305v-10.259c0-3.176-2-6.007-4.993-7.068-10.694-3.793-19.345-12.443-23.138-23.138-1.062-2.993-3.893-4.993-7.068-4.993h-10.259v-15.305h10.259c3.176 0 6.007-2 7.068-4.993 3.793-10.694 12.443-19.344 23.138-23.137 2.993-1.062 4.993-3.893 4.993-7.068v-10.259h15.305v10.259c0 3.176 2 6.007 4.993 7.068 10.694 3.793 19.344 12.442 23.137 23.137 1.062 2.993 3.893 4.993 7.068 4.993h10.259z"/><path d="m466.543 443.891c0-12.49-10.162-22.652-22.652-22.652s-22.652 10.162-22.652 22.652 10.162 22.652 22.652 22.652 22.652-10.162 22.652-22.652zm-30.305 0c0-4.22 3.433-7.652 7.652-7.652s7.652 3.433 7.652 7.652-3.433 7.652-7.652 7.652-7.652-3.433-7.652-7.652z"/><path d="m504.5 421.238h-12.748c-5.243-11.097-14.112-19.966-25.209-25.209v-12.749c0-4.143-3.357-7.5-7.5-7.5h-30.305c-4.143 0-7.5 3.357-7.5 7.5v13.336c-2.029 2.08-2.744 5.247-1.563 8.104 1.581 3.828 5.966 5.648 9.795 4.068.584-.241 1.174-.468 1.772-.68 2.994-1.061 4.996-3.893 4.996-7.069v-10.259h15.305v10.259c0 3.176 2 6.007 4.993 7.068 10.694 3.793 19.344 12.443 23.137 23.138 1.062 2.993 3.893 4.993 7.068 4.993h10.259v15.305h-10.259c-3.176 0-6.007 2-7.068 4.993-3.793 10.694-12.442 19.344-23.137 23.137-2.993 1.062-4.993 3.893-4.993 7.068v10.259h-15.305v-10.259c0-3.176-2-6.007-4.993-7.068-10.694-3.793-19.345-12.442-23.138-23.137-1.062-2.993-3.893-4.993-7.068-4.993h-10.259v-15.305h10.259c3.178 0 6.01-2.002 7.07-4.997.223-.63.463-1.252.718-1.865 1.588-3.826-.226-8.215-4.052-9.803-2.905-1.208-6.14-.448-8.223 1.665h-13.272c-4.143 0-7.5 3.357-7.5 7.5v30.305c0 4.143 3.357 7.5 7.5 7.5h12.749c5.243 11.097 14.112 19.966 25.209 25.209v12.748c0 4.143 3.357 7.5 7.5 7.5h30.305c4.143 0 7.5-3.357 7.5-7.5v-12.749c11.096-5.242 19.966-14.112 25.208-25.208h12.749c4.143 0 7.5-3.357 7.5-7.5v-30.305c0-4.142-3.357-7.5-7.5-7.5z"/><path d="m90.762 68.109c0-12.49-10.162-22.652-22.652-22.652s-22.653 10.162-22.653 22.652 10.162 22.652 22.652 22.652 22.653-10.161 22.653-22.652zm-30.305 0c0-4.22 3.433-7.652 7.652-7.652s7.652 3.433 7.652 7.652-3.433 7.652-7.652 7.652-7.652-3.432-7.652-7.652z"/><path d="m7.5 90.762h12.748c5.243 11.097 14.112 19.966 25.209 25.209v12.749c0 4.143 3.357 7.5 7.5 7.5h30.305c4.143 0 7.5-3.357 7.5-7.5v-12.748c11.097-5.243 19.967-14.113 25.21-25.21h12.748c4.143 0 7.5-3.357 7.5-7.5v-30.305c0-4.143-3.357-7.5-7.5-7.5h-12.749c-5.243-11.097-14.112-19.966-25.209-25.209v-12.748c0-4.143-3.357-7.5-7.5-7.5h-30.305c-4.143 0-7.5 3.357-7.5 7.5v13.337c-2.029 2.081-2.743 5.249-1.562 8.106 1.583 3.827 5.969 5.645 9.798 4.063.582-.241 1.173-.468 1.771-.68 2.993-1.062 4.993-3.893 4.993-7.068v-10.258h15.305v10.259c0 3.176 2 6.007 4.993 7.068 10.694 3.793 19.345 12.443 23.138 23.137 1.062 2.993 3.893 4.993 7.068 4.993h10.259v15.305h-10.259c-3.176 0-6.007 2-7.068 4.993-3.793 10.694-12.444 19.345-23.138 23.138-2.993 1.062-4.993 3.893-4.993 7.068v10.259h-15.305v-10.259c0-3.176-2-6.007-4.993-7.068-10.694-3.793-19.344-12.444-23.137-23.138-1.062-2.993-3.893-4.993-7.068-4.993h-10.259v-15.305h10.259c3.176 0 6.008-2.001 7.069-4.994.222-.628.461-1.248.716-1.859 1.592-3.824-.217-8.215-4.04-9.808-2.911-1.212-6.146-.454-8.23 1.661h-13.274c-4.143 0-7.5 3.357-7.5 7.5v30.305c0 4.142 3.357 7.5 7.5 7.5z"/><path d="m128.72 421.238h-12.748c-5.243-11.097-14.113-19.967-25.21-25.21v-12.748c0-4.143-3.357-7.5-7.5-7.5h-30.305c-4.143 0-7.5 3.357-7.5 7.5v12.749c-11.097 5.243-19.966 14.112-25.209 25.209h-12.748c-4.143 0-7.5 3.357-7.5 7.5v30.305c0 4.143 3.357 7.5 7.5 7.5h12.749c5.242 11.096 14.112 19.966 25.208 25.208v12.749c0 4.143 3.357 7.5 7.5 7.5h30.305c4.143 0 7.5-3.357 7.5-7.5v-12.748c11.097-5.243 19.966-14.112 25.209-25.209h12.749c4.143 0 7.5-3.357 7.5-7.5v-30.305c0-4.142-3.358-7.5-7.5-7.5zm-7.5 30.305h-10.259c-3.176 0-6.007 2-7.068 4.993-3.793 10.694-12.443 19.344-23.138 23.137-2.993 1.062-4.993 3.893-4.993 7.068v10.259h-15.305v-10.259c0-3.176-2-6.007-4.993-7.068-10.694-3.793-19.344-12.443-23.137-23.137-1.062-2.993-3.893-4.993-7.068-4.993h-10.259v-15.305h10.259c3.176 0 6.007-2 7.068-4.993 3.793-10.694 12.442-19.345 23.137-23.138 2.993-1.062 4.993-3.893 4.993-7.068v-10.259h15.305v10.259c0 3.176 2 6.007 4.993 7.068 10.694 3.793 19.345 12.443 23.138 23.138 1.062 2.993 3.893 4.993 7.068 4.993h10.259z"/><path d="m68.109 421.238c-12.49 0-22.652 10.162-22.652 22.652s10.162 22.652 22.652 22.652 22.652-10.162 22.652-22.652-10.161-22.652-22.652-22.652zm0 30.305c-4.22 0-7.652-3.433-7.652-7.652s3.433-7.652 7.652-7.652 7.652 3.433 7.652 7.652-3.432 7.652-7.652 7.652z"/><path d="m123.922 113.314c-2.93-2.928-7.678-2.928-10.607 0-2.929 2.93-2.929 7.678 0 10.607l21.542 21.542h-6.137c-4.143 0-7.5 3.357-7.5 7.5s3.357 7.5 7.5 7.5h24.244c4.083 0 7.504-3.421 7.5-7.505v-24.238c0-4.143-3.357-7.5-7.5-7.5s-7.5 3.357-7.5 7.5v6.137z"/><path d="m351.574 153.706c.373 3.782 3.664 6.758 7.463 6.758h24.244c4.143 0 7.5-3.357 7.5-7.5s-3.357-7.5-7.5-7.5h-6.137l21.542-21.542c2.929-2.93 2.929-7.678 0-10.607-2.93-2.928-7.678-2.928-10.607 0l-21.542 21.542v-6.137c0-4.143-3.357-7.5-7.5-7.5s-7.5 3.357-7.5 7.5v24.239c-.001.249.012.499.037.747z"/><path d="m160.427 356.276c-.372-3.788-3.668-6.759-7.463-6.759h-24.244c-4.143 0-7.5 3.357-7.5 7.5s3.357 7.5 7.5 7.5h6.137l-21.542 21.541c-2.93 2.93-2.93 7.678-.001 10.606 1.465 1.465 3.384 2.197 5.304 2.197 1.919 0 3.839-.732 5.303-2.196l21.543-21.542v6.137c0 4.143 3.357 7.5 7.5 7.5s7.5-3.357 7.5-7.5v-24.24c0-.249-.013-.497-.037-.744z"/><path d="m388.079 396.665c1.464 1.464 3.384 2.196 5.303 2.196s3.839-.732 5.304-2.197c2.929-2.929 2.929-7.677-.001-10.606l-21.542-21.541h6.137c4.143 0 7.5-3.357 7.5-7.5s-3.357-7.5-7.5-7.5h-24.244c-4.076 0-7.502 3.415-7.5 7.503v24.24c0 4.143 3.357 7.5 7.5 7.5s7.5-3.357 7.5-7.5v-6.137z"/>
</symbol>
</svg>
